<svg xmlns="http://www.w3.org/2000/svg" width="34.058" height="40.879" viewBox="0 0 34.058 40.879">
  <g id="android" transform="translate(-42.727)">
    <g id="Group_1985" data-name="Group 1985" transform="translate(42.727 0)">
      <path id="Path_1200" data-name="Path 1200" d="M45.281,170.787a2.554,2.554,0,0,0-2.554,2.554v11.92a2.554,2.554,0,0,0,5.109,0v-11.92A2.554,2.554,0,0,0,45.281,170.787Z" transform="translate(-42.727 -157.154)" fill="#4caf50"/>
      <path id="Path_1201" data-name="Path 1201" d="M407.947,170.787a2.554,2.554,0,0,0-2.554,2.554v11.92a2.554,2.554,0,0,0,5.109,0v-11.92A2.554,2.554,0,0,0,407.947,170.787Z" transform="translate(-376.444 -157.154)" fill="#4caf50"/>
      <path id="Path_1202" data-name="Path 1202" d="M147.643,170.787H128.911a.851.851,0,0,0-.851.851v13.623a4.257,4.257,0,0,0,3.406,4.172v6.045a2.554,2.554,0,1,0,5.109,0v-5.96h3.406v5.96a2.554,2.554,0,1,0,5.109,0v-6.045a4.257,4.257,0,0,0,3.406-4.172V171.638A.852.852,0,0,0,147.643,170.787Z" transform="translate(-121.248 -157.154)" fill="#4caf50"/>
      <path id="Path_1203" data-name="Path 1203" d="M144.466,3.538l2.076-2.074A.851.851,0,1,0,145.359.239l-.021.021L142.92,2.678a11.653,11.653,0,0,0-9.286,0L131.216.258a.851.851,0,0,0-1.2,1.2l2.074,2.076a8.986,8.986,0,0,0-4.027,7.54.852.852,0,0,0,.851.851h18.732a.851.851,0,0,0,.851-.851A8.986,8.986,0,0,0,144.466,3.538Z" transform="translate(-121.247 0)" fill="#4caf50"/>
    </g>
    <g id="Group_1986" data-name="Group 1986" transform="translate(54.647 6.821)">
      <circle id="Ellipse_159" data-name="Ellipse 159" cx="0.851" cy="0.851" r="0.851" fill="#fafafa"/>
      <circle id="Ellipse_160" data-name="Ellipse 160" cx="0.851" cy="0.851" r="0.851" transform="translate(8.514)" fill="#fafafa"/>
    </g>
  </g>
</svg>
