<svg xmlns="http://www.w3.org/2000/svg" width="33.629" height="41" viewBox="0 0 33.629 41">
  <g id="company_1_" data-name="company (1)" transform="translate(-46.022)">
    <path id="Path_1204" data-name="Path 1204" d="M57.172,149.512c-6.1-.035-11.15-12.491-11.15-18.835,0-10.362,7.774-12.631,10.769-12.631a12.392,12.392,0,0,1,4.063,1,9.083,9.083,0,0,0,2.32.665,7.221,7.221,0,0,0,1.665-.54,13.341,13.341,0,0,1,5.017-1.213h.012a10.283,10.283,0,0,1,8.605,4.346l.628.943-.9.682c-1.29.974-3.645,2.75-3.645,6.267a7.074,7.074,0,0,0,3.947,6.54c.565.34,1.151.691,1.151,1.458,0,.5-4,11.256-9.8,11.256a7.884,7.884,0,0,1-3.31-.8,6.712,6.712,0,0,0-2.947-.71,7.579,7.579,0,0,0-2.333.631,11.428,11.428,0,0,1-4.047.944Z" transform="translate(0 -108.512)"/>
    <path id="Path_1205" data-name="Path 1205" d="M262.857,0c.151,5.451-3.747,9.233-7.641,9C254.574,4.646,259.109,0,262.857,0Z" transform="translate(-192.385)"/>
  </g>
</svg>
