<svg xmlns="http://www.w3.org/2000/svg" width="51.638" height="73.785" viewBox="0 0 51.638 73.785">
  <g id="Outline_3_" transform="translate(-62.738 2.386)">
    <g id="Group_1903" data-name="Group 1903" transform="translate(62.939 -2.386)">
      <path id="Path_1128" data-name="Path 1128" d="M123.474,127.864l-16.4-20.129v-6.12a1.016,1.016,0,1,0-2.031,0V108.1a1.016,1.016,0,0,0,.228.642l5.711,7.009H88.134l5.711-7.009a1.016,1.016,0,0,0,.228-.642V86.364h10.968V96.722a1.016,1.016,0,0,0,2.031,0V86.364h1.151a1.015,1.015,0,0,0,1.016-1.016V81.016A1.015,1.015,0,0,0,108.223,80H90.891a1.015,1.015,0,0,0-1.016,1.016v4.333a1.015,1.015,0,0,0,1.016,1.016h1.151v21.371l-16.4,20.13a6.432,6.432,0,0,0,4.986,10.495H99.1a1.016,1.016,0,1,0,0-2.031H80.626a4.4,4.4,0,0,1-3.412-7.181l9.264-11.37h26.156l9.264,11.37a4.4,4.4,0,0,1-3.412,7.181h-14.3a1.016,1.016,0,0,0,0,2.031h14.3a6.432,6.432,0,0,0,4.986-10.495ZM91.907,82.031h15.3v2.3h-15.3Z" transform="translate(-74.185 -64.699)" fill="#1d1760" stroke="#1d1760" stroke-width="0.25"/>
      <path id="Path_1129" data-name="Path 1129" d="M379.478,98.832a5.416,5.416,0,1,0-5.416-5.416A5.422,5.422,0,0,0,379.478,98.832Zm0-8.253a2.837,2.837,0,1,1-2.837,2.837A2.84,2.84,0,0,1,379.478,90.579Z" transform="translate(-333.457 -71.616)" fill="#9e7498"/>
      <path id="Path_1130" data-name="Path 1130" d="M227.478,10.832a5.416,5.416,0,1,0-5.416-5.416A5.422,5.422,0,0,0,227.478,10.832Zm0-7.375a1.959,1.959,0,1,1-1.959,1.959A1.961,1.961,0,0,1,227.478,3.457Z" transform="translate(-202.039)" fill="#5d7f9a"/>
      <path id="Path_1131" data-name="Path 1131" d="M68.426,75.182a3.182,3.182,0,1,0-3.182,3.182A3.186,3.186,0,0,0,68.426,75.182Zm-4.333,0a1.151,1.151,0,1,1,1.151,1.151A1.152,1.152,0,0,1,64.093,75.182Z" transform="translate(-58.086 -42.801)" fill="#a39161"/>
      <path id="Path_1133" data-name="Path 1133" d="M310.592,396.265a4.265,4.265,0,1,0-4.265,4.265A4.27,4.27,0,0,0,310.592,396.265Zm-6.5,0a2.234,2.234,0,1,1,2.234,2.234A2.237,2.237,0,0,1,304.093,396.265Z" transform="translate(-271.207 -334.453)" fill="#43aa0c"/>
      <path id="Path_1134" data-name="Path 1134" d="M214.062,379.182A3.182,3.182,0,1,0,217.244,376,3.186,3.186,0,0,0,214.062,379.182Zm4.333,0a1.151,1.151,0,1,1-1.151-1.151A1.152,1.152,0,0,1,218.395,379.182Z" transform="translate(-195.122 -320.62)" fill="#707070"/>
      <path id="Path_1135" data-name="Path 1135" d="M166.062,435.182A3.182,3.182,0,1,0,169.244,432,3.186,3.186,0,0,0,166.062,435.182Zm4.333,0a1.151,1.151,0,1,1-1.151-1.151A1.152,1.152,0,0,1,170.395,435.182Z" transform="translate(-153.621 -369.037)" fill="#3d8de7"/>
    </g>
  </g>
</svg>
