<svg xmlns="http://www.w3.org/2000/svg" width="189.557" height="120.358" viewBox="0 0 189.557 120.358">
  <g id="group" transform="translate(0 -92.25)">
    <g id="Group_2161" data-name="Group 2161" transform="translate(0 92.25)">
      <path id="Path_1472" data-name="Path 1472" d="M163.94,145.209a21.641,21.641,0,1,0-24.829,0,37.5,37.5,0,0,0-12.79,7.5,48.521,48.521,0,0,0-17.553-9.564,27.417,27.417,0,1,0-28.355,0A48.925,48.925,0,0,0,63.048,152.6a37.8,37.8,0,0,0-12.64-7.351,21.641,21.641,0,1,0-24.829,0A37.987,37.987,0,0,0,0,181.14v2.475a.161.161,0,0,0,.15.15H46.02a50.446,50.446,0,0,0-.413,6.339v2.55a19.945,19.945,0,0,0,19.953,19.953H123.7a19.944,19.944,0,0,0,19.953-19.953V190.1a50.443,50.443,0,0,0-.413-6.339h46.17a.161.161,0,0,0,.15-.15V181.14A38.133,38.133,0,0,0,163.94,145.209Zm-28.055-17.74a15.64,15.64,0,1,1,15.94,15.64h-.6A15.617,15.617,0,0,1,135.885,127.468Zm-62.786-7.8a21.416,21.416,0,1,1,22.654,21.379H93.278A21.447,21.447,0,0,1,73.1,119.667Zm-50.859,7.8a15.64,15.64,0,1,1,15.94,15.64h-.6A15.642,15.642,0,0,1,22.241,127.468ZM47.07,177.727H6.076a32.046,32.046,0,0,1,31.58-28.617h.45a31.713,31.713,0,0,1,20.441,7.614A49.246,49.246,0,0,0,47.07,177.727Zm90.5,14.928a13.974,13.974,0,0,1-13.952,13.952H65.486a13.974,13.974,0,0,1-13.952-13.952V190.1a43.084,43.084,0,0,1,41.744-43.02c.413.038.863.038,1.275.038s.863,0,1.275-.038a43.084,43.084,0,0,1,41.745,43.02Zm4.463-14.928a49.116,49.116,0,0,0-11.364-20.853A31.866,31.866,0,0,1,151.3,149.11h.45a32.046,32.046,0,0,1,31.58,28.617Z" transform="translate(0 -92.25)" fill="#4f758f"/>
    </g>
  </g>
</svg>
