<svg xmlns="http://www.w3.org/2000/svg" width="219.22" height="139.192" viewBox="0 0 219.22 139.192">
  <g id="group" transform="translate(0 -92.25)">
    <g id="Group_2161" data-name="Group 2161" transform="translate(0 92.25)">
      <path id="Path_1472" data-name="Path 1472" d="M189.595,153.5a25.028,25.028,0,1,0-28.715,0,43.364,43.364,0,0,0-14.791,8.675,56.113,56.113,0,0,0-20.3-11.061,31.708,31.708,0,1,0-32.792,0,56.581,56.581,0,0,0-20.083,10.931,43.716,43.716,0,0,0-14.618-8.5,25.028,25.028,0,1,0-28.715,0A43.932,43.932,0,0,0,0,195.05v2.863a.187.187,0,0,0,.174.173H53.222a58.34,58.34,0,0,0-.477,7.33v2.95a23.066,23.066,0,0,0,23.076,23.076h67.232a23.066,23.066,0,0,0,23.076-23.076v-2.95a58.336,58.336,0,0,0-.477-7.33h53.4a.187.187,0,0,0,.173-.173V195.05A44.1,44.1,0,0,0,189.595,153.5ZM157.15,132.98a18.088,18.088,0,1,1,18.435,18.088h-.694A18.061,18.061,0,0,1,157.15,132.98Zm-72.611-9.022a24.767,24.767,0,1,1,26.2,24.724h-2.863A24.8,24.8,0,0,1,84.539,123.958ZM25.722,132.98a18.088,18.088,0,1,1,18.435,18.088h-.694A18.09,18.09,0,0,1,25.722,132.98ZM54.436,191.1H7.027a37.061,37.061,0,0,1,36.522-33.1h.521a36.676,36.676,0,0,1,23.64,8.805A56.952,56.952,0,0,0,54.436,191.1ZM159.1,208.366A16.161,16.161,0,0,1,142.966,224.5H75.734A16.161,16.161,0,0,1,59.6,208.366v-2.95a49.826,49.826,0,0,1,48.277-49.752c.477.043,1,.043,1.475.043s1,0,1.475-.043A49.826,49.826,0,0,1,159.1,205.417Zm5.162-17.263a56.8,56.8,0,0,0-13.143-24.117,36.853,36.853,0,0,1,23.857-8.979h.521a37.061,37.061,0,0,1,36.522,33.1Z" transform="translate(0 -92.25)" fill="#797979"/>
    </g>
  </g>
</svg>
