<svg xmlns="http://www.w3.org/2000/svg" width="43" height="40.849" viewBox="0 0 43 40.849">
  <g id="Group_2290" data-name="Group 2290" transform="translate(0.5 0.5)">
    <path id="Path_1466" data-name="Path 1466" d="M37.541,15.645H31.356V8.419A4.41,4.41,0,0,0,26.9,4.069H4.459A4.41,4.41,0,0,0,0,8.419V21.047A4.41,4.41,0,0,0,4.459,25.4h6.185v7.226a4.41,4.41,0,0,0,4.459,4.35h3.5l6.7,6.535a1.467,1.467,0,0,0,1.568.3,1.4,1.4,0,0,0,.888-1.3V36.973h9.781A4.41,4.41,0,0,0,42,32.623V19.995A4.41,4.41,0,0,0,37.541,15.645ZM4.459,22.59a1.565,1.565,0,0,1-1.582-1.544V8.419A1.565,1.565,0,0,1,4.459,6.875H26.9a1.565,1.565,0,0,1,1.582,1.543V21.047A1.565,1.565,0,0,1,26.9,22.59H23.948A1.457,1.457,0,0,0,22.931,23l-4.664,4.55V23.994a1.421,1.421,0,0,0-1.438-1.4H4.459ZM39.124,32.623h0a1.565,1.565,0,0,1-1.582,1.543H26.322a1.421,1.421,0,0,0-1.438,1.4v3.558l-4.664-4.55a1.457,1.457,0,0,0-1.017-.411H15.1a1.565,1.565,0,0,1-1.582-1.543V25.4h1.87v5.542a1.4,1.4,0,0,0,.888,1.3,1.471,1.471,0,0,0,.55.107,1.456,1.456,0,0,0,1.017-.411l6.7-6.535H26.9a4.41,4.41,0,0,0,4.459-4.35v-2.6h6.185a1.565,1.565,0,0,1,1.582,1.543Z" transform="translate(0 -4.069)" fill="#1d1860" stroke="#fff" stroke-width="1"/>
    <path id="Path_1467" data-name="Path 1467" d="M36.75,41.97H55.736a1.151,1.151,0,1,0,0-2.3H36.75a1.151,1.151,0,0,0,0,2.3Z" transform="translate(-30.565 -34.635)" fill="#1d1860" stroke="#fff" stroke-width="1"/>
    <path id="Path_1468" data-name="Path 1468" d="M36.75,75.535H55.736a1.151,1.151,0,1,0,0-2.3H36.75a1.151,1.151,0,0,0,0,2.3Z" transform="translate(-30.565 -63.453)" fill="#1d1860" stroke="#fff" stroke-width="1"/>
    <path id="Path_1469" data-name="Path 1469" d="M46.243,106.8H36.75a1.151,1.151,0,1,0,0,2.3h9.493a1.151,1.151,0,0,0,0-2.3Z" transform="translate(-30.565 -92.271)" fill="#1d1860" stroke="#fff" stroke-width="1"/>
    <path id="Path_1470" data-name="Path 1470" d="M142.192,106.8h-4.747a1.151,1.151,0,0,0,0,2.3h4.747a1.151,1.151,0,1,0,0-2.3Z" transform="translate(-117.021 -92.271)" fill="#1d1860" stroke="#fff" stroke-width="1"/>
    <path id="Path_1471" data-name="Path 1471" d="M188.641,173.928h-9.493a1.151,1.151,0,1,0,0,2.3h9.493a1.151,1.151,0,0,0,0-2.3Z" transform="translate(-152.826 -149.908)" fill="#1d1860" stroke="#fff" stroke-width="1"/>
  </g>
</svg>
