<svg xmlns="http://www.w3.org/2000/svg" width="78.919" height="50.109" viewBox="0 0 78.919 50.109">
  <g id="group" transform="translate(0 -92.25)">
    <g id="Group_2161" data-name="Group 2161" transform="translate(0 92.25)">
      <path id="Path_1472" data-name="Path 1472" d="M68.254,114.3a9.01,9.01,0,1,0-10.337,0,15.611,15.611,0,0,0-5.325,3.123,20.2,20.2,0,0,0-7.308-3.982,11.415,11.415,0,1,0-11.805,0,20.369,20.369,0,0,0-7.23,3.935,15.738,15.738,0,0,0-5.262-3.061,9.01,9.01,0,1,0-10.337,0A15.815,15.815,0,0,0,0,129.258v1.031a.067.067,0,0,0,.062.062h19.1a21,21,0,0,0-.172,2.639v1.062a8.3,8.3,0,0,0,8.307,8.307H51.5a8.3,8.3,0,0,0,8.307-8.307V132.99a21,21,0,0,0-.172-2.639H78.856a.067.067,0,0,0,.062-.062v-1.031A15.876,15.876,0,0,0,68.254,114.3Zm-11.68-7.386a6.512,6.512,0,1,1,6.636,6.512h-.25A6.5,6.5,0,0,1,56.574,106.913Zm-26.14-3.248a8.916,8.916,0,1,1,9.432,8.9H38.835A8.929,8.929,0,0,1,30.434,103.665ZM9.26,106.913a6.512,6.512,0,1,1,6.636,6.512h-.25A6.512,6.512,0,0,1,9.26,106.913ZM19.6,127.837H2.53a13.342,13.342,0,0,1,13.148-11.914h.187a13.2,13.2,0,0,1,8.51,3.17A20.5,20.5,0,0,0,19.6,127.837Zm37.679,6.215a5.818,5.818,0,0,1-5.809,5.809h-24.2a5.818,5.818,0,0,1-5.809-5.809V132.99a17.937,17.937,0,0,1,17.38-17.911c.172.016.359.016.531.016s.359,0,.531-.016a17.937,17.937,0,0,1,17.38,17.911Zm1.858-6.215a20.449,20.449,0,0,0-4.731-8.682,13.267,13.267,0,0,1,8.588-3.232h.187a13.342,13.342,0,0,1,13.148,11.914Z" transform="translate(0 -92.25)" fill="#4f758f"/>
    </g>
  </g>
</svg>
