<svg xmlns="http://www.w3.org/2000/svg" width="177.507" height="177.507" viewBox="0 0 177.507 177.507">
  <g id="idea_3_" data-name="idea (3)" transform="translate(0.125 0.125)">
    <g id="Group_2148" data-name="Group 2148" transform="translate(36.928 36.928)">
      <path id="Path_1455" data-name="Path 1455" d="M67.778,145.328H45.621c-5.17,0-11.079-4.431-11.079-13.294v-15.51c0-7.386-3.693-14.033-9.6-19.2C11.647,86.981,5,72.21,5,55.961A52.561,52.561,0,0,1,55.961,5C69.994,5,83.288,10.17,92.89,19.771A52.579,52.579,0,0,1,108.4,56.7c0,15.51-6.647,30.281-19.2,39.883a26.966,26.966,0,0,0-10.34,20.68V134.25a11.359,11.359,0,0,1-11.079,11.079ZM56.7,12.386c-23.634,0-43.576,19.941-44.314,43.576,0,14.033,5.909,27.327,16.987,35.451,8.124,6.647,12.556,15.51,12.556,25.111v15.51c0,1.477,0,5.909,3.693,5.909H67.778a3.489,3.489,0,0,0,3.693-3.693V117.263c0-9.6,5.17-19.941,13.294-26.588A43.067,43.067,0,0,0,101.014,56.7,44.149,44.149,0,0,0,87.72,24.941,43.536,43.536,0,0,0,56.7,12.386Z" transform="translate(-5 -5)" fill="#d96d00" stroke="#fff" stroke-width="0.25"/>
    </g>
    <g id="Group_2149" data-name="Group 2149" transform="translate(66.471 147.714)">
      <path id="Path_1456" data-name="Path 1456" d="M49.621,27.386H12.693A3.489,3.489,0,0,1,9,23.693,3.489,3.489,0,0,1,12.693,20H49.621a3.489,3.489,0,0,1,3.693,3.693A3.489,3.489,0,0,1,49.621,27.386Z" transform="translate(-9 -20)" fill="#d96d00" stroke="#fff" stroke-width="0.25"/>
    </g>
    <g id="Group_2150" data-name="Group 2150" transform="translate(84.935)">
      <path id="Path_1457" data-name="Path 1457" d="M15.193,22.157A3.489,3.489,0,0,1,11.5,18.464V3.693A3.489,3.489,0,0,1,15.193,0a3.489,3.489,0,0,1,3.693,3.693V18.464A3.489,3.489,0,0,1,15.193,22.157Z" transform="translate(-11.5)" fill="#d96d00" stroke="#fff" stroke-width="0.25"/>
    </g>
    <g id="Group_2151" data-name="Group 2151" transform="translate(134.05 25.481)">
      <path id="Path_1458" data-name="Path 1458" d="M22.212,20.806c-.739,0-2.216,0-2.954-.739a3.57,3.57,0,0,1,0-5.17L29.6,4.558a3.57,3.57,0,0,1,5.17,0,3.57,3.57,0,0,1,0,5.17l-10.34,10.34a7.44,7.44,0,0,1-2.216.739Z" transform="translate(-18.15 -3.45)" fill="#d96d00" stroke="#fff" stroke-width="0.25"/>
    </g>
    <g id="Group_2152" data-name="Group 2152" transform="translate(155.1 84.935)">
      <path id="Path_1459" data-name="Path 1459" d="M39.464,18.886H24.693A3.489,3.489,0,0,1,21,15.193,3.489,3.489,0,0,1,24.693,11.5H39.464a3.489,3.489,0,0,1,3.693,3.693A3.489,3.489,0,0,1,39.464,18.886Z" transform="translate(-21 -11.5)" fill="#d96d00" stroke="#fff" stroke-width="0.25"/>
    </g>
    <g id="Group_2153" data-name="Group 2153" transform="translate(134.05 134.789)">
      <path id="Path_1460" data-name="Path 1460" d="M32.552,35.606c-.739,0-2.216,0-2.954-.739l-10.34-10.34a3.656,3.656,0,0,1,5.17-5.17L34.768,29.7a3.57,3.57,0,0,1,0,5.17c0,.739-.739.739-2.216.739Z" transform="translate(-18.15 -18.25)" fill="#d96d00" stroke="#fff" stroke-width="0.25"/>
    </g>
    <g id="Group_2154" data-name="Group 2154" transform="translate(24.742 134.789)">
      <path id="Path_1461" data-name="Path 1461" d="M7.412,35.606c-.739,0-2.216,0-2.954-.739a3.57,3.57,0,0,1,0-5.17L14.8,19.358a3.656,3.656,0,0,1,5.17,5.17L9.628,34.868a2.713,2.713,0,0,1-2.216.739Z" transform="translate(-3.35 -18.25)" fill="#d96d00" stroke="#fff" stroke-width="0.25"/>
    </g>
    <g id="Group_2155" data-name="Group 2155" transform="translate(0 84.935)">
      <path id="Path_1462" data-name="Path 1462" d="M18.464,18.886H3.693A3.489,3.489,0,0,1,0,15.193,3.489,3.489,0,0,1,3.693,11.5H18.464a3.489,3.489,0,0,1,3.693,3.693A3.489,3.489,0,0,1,18.464,18.886Z" transform="translate(0 -11.5)" fill="#d96d00" stroke="#fff" stroke-width="0.25"/>
    </g>
    <g id="Group_2156" data-name="Group 2156" transform="translate(24.742 24.742)">
      <path id="Path_1463" data-name="Path 1463" d="M17.752,21.445c-.739,0-2.216,0-2.954-.739L4.458,9.628a3.57,3.57,0,0,1,0-5.17,3.57,3.57,0,0,1,5.17,0L19.968,14.8a3.57,3.57,0,0,1,0,5.17c-.739.739-1.477,1.477-2.216,1.477Z" transform="translate(-3.35 -3.35)" fill="#d96d00" stroke="#fff" stroke-width="0.25"/>
    </g>
    <g id="Group_2157" data-name="Group 2157" transform="translate(84.935 55.393)">
      <path id="Path_1464" data-name="Path 1464" d="M44.736,44.428a3.489,3.489,0,0,1-3.693-3.693,26.168,26.168,0,0,0-25.85-25.85A3.489,3.489,0,0,1,11.5,11.193,3.489,3.489,0,0,1,15.193,7.5,33.1,33.1,0,0,1,48.428,40.736,3.489,3.489,0,0,1,44.736,44.428Z" transform="translate(-11.5 -7.5)" fill="#d96d00" stroke="#fff" stroke-width="0.25"/>
    </g>
  </g>
</svg>
