<svg xmlns="http://www.w3.org/2000/svg" width="947.683" height="887.886" viewBox="0 0 947.683 887.886">
  <g id="Group_2281" data-name="Group 2281" transform="translate(-988.488 3132.386)">
    <g id="Group_2163" data-name="Group 2163" transform="translate(1699.759 -3078.883)">
      <path id="Path_1476" data-name="Path 1476" d="M19.346,38.692A19.346,19.346,0,1,0,0,19.346,19.346,19.346,0,0,0,19.346,38.692Z" fill="none" stroke="#8d618a" stroke-width="5"/>
    </g>
    <g id="Group_2164" data-name="Group 2164" transform="translate(1643.479 -3033.156)">
      <path id="Path_1477" data-name="Path 1477" d="M19.346,38.692A19.346,19.346,0,1,0,0,19.346,19.346,19.346,0,0,0,19.346,38.692Z" fill="none" stroke="#577e9a" stroke-width="5"/>
    </g>
    <g id="Group_2165" data-name="Group 2165" transform="translate(1794.731 -3075.365)">
      <path id="Path_1478" data-name="Path 1478" d="M19.346,38.692A19.346,19.346,0,1,0,0,19.346,19.346,19.346,0,0,0,19.346,38.692Z" fill="none" stroke="#577e9a" stroke-width="5"/>
    </g>
    <g id="Group_2166" data-name="Group 2166" transform="translate(1706.794 -3010.292)">
      <path id="Path_1479" data-name="Path 1479" d="M25.5,51A25.5,25.5,0,1,0,0,25.5,25.5,25.5,0,0,0,25.5,51Z" fill="none" stroke="#33347a" stroke-width="5"/>
    </g>
    <g id="Group_2167" data-name="Group 2167" transform="translate(1872.115 -3071.848)">
      <path id="Path_1480" data-name="Path 1480" d="M25.5,51A25.5,25.5,0,1,0,0,25.5,25.5,25.5,0,0,0,25.5,51Z" fill="none" stroke="#33347a" stroke-width="5"/>
    </g>
    <g id="Group_2168" data-name="Group 2168" transform="translate(1712.07 -2915.32)">
      <path id="Path_1481" data-name="Path 1481" d="M22.864,45.727A22.864,22.864,0,1,0,0,22.864,22.864,22.864,0,0,0,22.864,45.727Z" fill="none" stroke="#bba76d" stroke-width="5"/>
    </g>
    <g id="Group_2169" data-name="Group 2169" transform="translate(1877.392 -2976.876)">
      <path id="Path_1482" data-name="Path 1482" d="M22.864,45.727A22.864,22.864,0,1,0,0,22.864,22.864,22.864,0,0,0,22.864,45.727Z" fill="none" stroke="#bba76d" stroke-width="5"/>
    </g>
    <g id="Group_2170" data-name="Group 2170" transform="translate(1413.085 -2695.478)">
      <path id="Path_1483" data-name="Path 1483" d="M22.864,45.727A22.864,22.864,0,1,0,0,22.864,22.864,22.864,0,0,0,22.864,45.727Z" fill="none" stroke="#bba76d" stroke-width="5"/>
    </g>
    <g id="Group_2171" data-name="Group 2171" transform="translate(1462.33 -3063.054)">
      <path id="Path_1484" data-name="Path 1484" d="M22.864,45.727A22.864,22.864,0,1,0,0,22.864,22.864,22.864,0,0,0,22.864,45.727Z" fill="none" stroke="#bba76d" stroke-width="5"/>
    </g>
    <g id="Group_2172" data-name="Group 2172" transform="translate(1154.551 -2813.313)">
      <path id="Path_1485" data-name="Path 1485" d="M22.864,45.727A22.864,22.864,0,1,0,0,22.864,22.864,22.864,0,0,0,22.864,45.727Z" fill="none" stroke="#bba76d" stroke-width="5"/>
    </g>
    <g id="Group_2173" data-name="Group 2173" transform="translate(1189.725 -3038.432) rotate(180)">
      <path id="Path_1486" data-name="Path 1486" d="M22.864,45.727A22.864,22.864,0,1,0,0,22.864,22.864,22.864,0,0,0,22.864,45.727Z" fill="none" stroke="#bba76d" stroke-width="5"/>
    </g>
    <g id="Group_2174" data-name="Group 2174" transform="translate(1627.651 -2802.761)">
      <path id="Path_1487" data-name="Path 1487" d="M36.933,73.867A36.933,36.933,0,1,0,0,36.933,36.933,36.933,0,0,0,36.933,73.867Z" fill="none" stroke="#33347a" stroke-width="5"/>
    </g>
    <g id="Group_2175" data-name="Group 2175" transform="translate(1792.972 -2864.317)">
      <path id="Path_1488" data-name="Path 1488" d="M36.933,73.867A36.933,36.933,0,1,0,0,36.933,36.933,36.933,0,0,0,36.933,73.867Z" fill="none" stroke="#33347a" stroke-width="5"/>
    </g>
    <g id="Group_2176" data-name="Group 2176" transform="translate(1328.666 -2582.919)">
      <path id="Path_1489" data-name="Path 1489" d="M36.933,73.867A36.933,36.933,0,1,0,0,36.933,36.933,36.933,0,0,0,36.933,73.867Z" fill="none" stroke="#33347a" stroke-width="5"/>
    </g>
    <g id="Group_2177" data-name="Group 2177" transform="translate(1377.91 -2950.495)">
      <path id="Path_1490" data-name="Path 1490" d="M36.933,73.867A36.933,36.933,0,1,0,0,36.933,36.933,36.933,0,0,0,36.933,73.867Z" fill="none" stroke="#33347a" stroke-width="5"/>
    </g>
    <g id="Group_2178" data-name="Group 2178" transform="translate(1070.131 -2700.754)">
      <path id="Path_1491" data-name="Path 1491" d="M36.933,73.867A36.933,36.933,0,1,0,0,36.933,36.933,36.933,0,0,0,36.933,73.867Z" fill="none" stroke="#33347a" stroke-width="5"/>
    </g>
    <g id="Group_2179" data-name="Group 2179" transform="translate(1133.446 -2897.733) rotate(180)">
      <path id="Path_1492" data-name="Path 1492" d="M36.933,73.867A36.933,36.933,0,1,0,0,36.933,36.933,36.933,0,0,0,36.933,73.867Z" fill="none" stroke="#33347a" stroke-width="5"/>
    </g>
    <g id="Group_2180" data-name="Group 2180" transform="translate(1678.654 -2637.44)">
      <path id="Path_1493" data-name="Path 1493" d="M30.778,61.556A30.778,30.778,0,1,0,0,30.778,30.778,30.778,0,0,0,30.778,61.556Z" fill="none" stroke="#33347a" stroke-width="5"/>
    </g>
    <g id="Group_2181" data-name="Group 2181" transform="translate(1277.662 -2698.996)">
      <path id="Path_1494" data-name="Path 1494" d="M30.778,61.556A30.778,30.778,0,1,0,0,30.778,30.778,30.778,0,0,0,30.778,61.556Z" fill="none" stroke="#33347a" stroke-width="5"/>
    </g>
    <g id="Group_2182" data-name="Group 2182" transform="translate(1379.669 -2417.598)">
      <path id="Path_1495" data-name="Path 1495" d="M30.778,61.556A30.778,30.778,0,1,0,0,30.778,30.778,30.778,0,0,0,30.778,61.556Z" fill="none" stroke="#33347a" stroke-width="5"/>
    </g>
    <g id="Group_2183" data-name="Group 2183" transform="translate(1460.571 -2771.104)">
      <path id="Path_1496" data-name="Path 1496" d="M30.778,61.556A30.778,30.778,0,1,0,0,30.778,30.778,30.778,0,0,0,30.778,61.556Z" fill="none" stroke="#33347a" stroke-width="5"/>
    </g>
    <g id="Group_2184" data-name="Group 2184" transform="translate(1768.35 -2772.863)">
      <path id="Path_1497" data-name="Path 1497" d="M19.346,38.692A19.346,19.346,0,1,0,0,19.346,19.346,19.346,0,0,0,19.346,38.692Z" fill="none" stroke="#33347a" stroke-width="5"/>
    </g>
    <g id="Group_2185" data-name="Group 2185" transform="translate(1469.365 -2553.021)">
      <path id="Path_1498" data-name="Path 1498" d="M19.346,38.692A19.346,19.346,0,1,0,0,19.346,19.346,19.346,0,0,0,19.346,38.692Z" fill="none" stroke="#33347a" stroke-width="5"/>
    </g>
    <g id="Group_2186" data-name="Group 2186" transform="translate(1518.609 -2920.596)">
      <path id="Path_1499" data-name="Path 1499" d="M19.346,38.692A19.346,19.346,0,1,0,0,19.346,19.346,19.346,0,0,0,19.346,38.692Z" fill="none" stroke="#33347a" stroke-width="5"/>
    </g>
    <g id="Group_2187" data-name="Group 2187" transform="translate(1210.83 -2670.856)">
      <path id="Path_1500" data-name="Path 1500" d="M19.346,38.692A19.346,19.346,0,1,0,0,19.346,19.346,19.346,0,0,0,19.346,38.692Z" fill="none" stroke="#33347a" stroke-width="5"/>
    </g>
    <g id="Group_2188" data-name="Group 2188" transform="translate(1238.97 -2903.009) rotate(180)">
      <path id="Path_1501" data-name="Path 1501" d="M19.346,38.692A19.346,19.346,0,1,0,0,19.346,19.346,19.346,0,0,0,19.346,38.692Z" fill="none" stroke="#33347a" stroke-width="5"/>
    </g>
    <g id="Group_2189" data-name="Group 2189" transform="translate(1749.004 -2510.811)">
      <path id="Path_1502" data-name="Path 1502" d="M19.346,38.692A19.346,19.346,0,1,0,0,19.346,19.346,19.346,0,0,0,19.346,38.692Z" fill="none" stroke="#33347a" stroke-width="5"/>
    </g>
    <g id="Group_2190" data-name="Group 2190" transform="translate(1590.718 -2575.884)">
      <path id="Path_1503" data-name="Path 1503" d="M19.346,38.692A19.346,19.346,0,1,0,0,19.346,19.346,19.346,0,0,0,19.346,38.692Z" fill="none" stroke="#33347a" stroke-width="5"/>
    </g>
    <g id="Group_2191" data-name="Group 2191" transform="translate(1247.764 -2866.076)">
      <path id="Path_1504" data-name="Path 1504" d="M19.346,38.692A19.346,19.346,0,1,0,0,19.346,19.346,19.346,0,0,0,19.346,38.692Z" fill="none" stroke="#33347a" stroke-width="5"/>
    </g>
    <g id="Group_2192" data-name="Group 2192" transform="translate(1559.06 -2728.894)">
      <path id="Path_1505" data-name="Path 1505" d="M44.848,89.7A44.848,44.848,0,1,0,0,44.848,44.848,44.848,0,0,0,44.848,89.7Z" fill="none" stroke="#577e9a" stroke-width="5"/>
    </g>
    <g id="Group_2193" data-name="Group 2193" transform="translate(1260.075 -2509.052)">
      <path id="Path_1506" data-name="Path 1506" d="M44.848,89.7A44.848,44.848,0,1,0,0,44.848,44.848,44.848,0,0,0,44.848,89.7Z" fill="none" stroke="#577e9a" stroke-width="5"/>
    </g>
    <g id="Group_2194" data-name="Group 2194" transform="translate(1261.834 -2336.696)">
      <path id="Path_1507" data-name="Path 1507" d="M44.848,89.7A44.848,44.848,0,1,0,0,44.848,44.848,44.848,0,0,0,44.848,89.7Z" fill="none" stroke="#577e9a" stroke-width="5"/>
    </g>
    <g id="Group_2195" data-name="Group 2195" transform="translate(1309.319 -2876.628)">
      <path id="Path_1508" data-name="Path 1508" d="M44.848,89.7A44.848,44.848,0,1,0,0,44.848,44.848,44.848,0,0,0,44.848,89.7Z" fill="none" stroke="#577e9a" stroke-width="5"/>
    </g>
    <g id="Group_2196" data-name="Group 2196" transform="translate(1001.541 -2626.887)">
      <path id="Path_1509" data-name="Path 1509" d="M44.848,89.7A44.848,44.848,0,1,0,0,44.848,44.848,44.848,0,0,0,44.848,89.7Z" fill="none" stroke="#577e9a" stroke-width="5"/>
    </g>
    <g id="Group_2197" data-name="Group 2197" transform="translate(1129.928 -2531.916)">
      <path id="Path_1510" data-name="Path 1510" d="M44.848,89.7A44.848,44.848,0,1,0,0,44.848,44.848,44.848,0,0,0,44.848,89.7Z" fill="none" stroke="#577e9a" stroke-width="5"/>
    </g>
    <g id="Group_2198" data-name="Group 2198" transform="translate(1080.684 -2808.037) rotate(180)">
      <path id="Path_1511" data-name="Path 1511" d="M44.848,89.7A44.848,44.848,0,1,0,0,44.848,44.848,44.848,0,0,0,44.848,89.7Z" fill="none" stroke="#577e9a" stroke-width="5"/>
    </g>
    <g id="Group_2199" data-name="Group 2199" transform="translate(1756.039 -2614.576)">
      <path id="Path_1512" data-name="Path 1512" d="M14.07,28.14A14.07,14.07,0,1,0,0,14.07,14.07,14.07,0,0,0,14.07,28.14Z" fill="none" stroke="#d1cec0" stroke-width="5"/>
    </g>
    <g id="Group_2200" data-name="Group 2200" transform="translate(1486.952 -2670.856)">
      <path id="Path_1513" data-name="Path 1513" d="M14.07,28.14A14.07,14.07,0,1,0,0,14.07,14.07,14.07,0,0,0,14.07,28.14Z" fill="none" stroke="#d1cec0" stroke-width="5"/>
    </g>
    <g id="Group_2201" data-name="Group 2201" transform="translate(1457.053 -2394.734)">
      <path id="Path_1514" data-name="Path 1514" d="M14.07,28.14A14.07,14.07,0,1,0,0,14.07,14.07,14.07,0,0,0,14.07,28.14Z" fill="none" stroke="#d1cec0" stroke-width="5"/>
    </g>
    <g id="Group_2202" data-name="Group 2202" transform="translate(1736.693 -2352.524)">
      <path id="Path_1515" data-name="Path 1515" d="M14.07,28.14A14.07,14.07,0,1,0,0,14.07,14.07,14.07,0,0,0,14.07,28.14Z" fill="none" stroke="#d1cec0" stroke-width="5"/>
    </g>
    <g id="Group_2203" data-name="Group 2203" transform="translate(1578.406 -2417.598)">
      <path id="Path_1516" data-name="Path 1516" d="M14.07,28.14A14.07,14.07,0,1,0,0,14.07,14.07,14.07,0,0,0,14.07,28.14Z" fill="none" stroke="#d1cec0" stroke-width="5"/>
    </g>
    <g id="Group_2204" data-name="Group 2204" transform="translate(1727.899 -2672.615)">
      <path id="Path_1517" data-name="Path 1517" d="M11.432,22.864A11.432,11.432,0,1,0,0,11.432,11.432,11.432,0,0,0,11.432,22.864Z" fill="none" stroke="#577e9a" stroke-width="5"/>
    </g>
    <g id="Group_2205" data-name="Group 2205" transform="translate(1428.914 -2452.772)">
      <path id="Path_1518" data-name="Path 1518" d="M11.432,22.864A11.432,11.432,0,1,0,0,11.432,11.432,11.432,0,0,0,11.432,22.864Z" fill="none" stroke="#577e9a" stroke-width="5"/>
    </g>
    <g id="Group_2206" data-name="Group 2206" transform="translate(1478.158 -2820.348)">
      <path id="Path_1519" data-name="Path 1519" d="M11.432,22.864A11.432,11.432,0,1,0,0,11.432,11.432,11.432,0,0,0,11.432,22.864Z" fill="none" stroke="#577e9a" stroke-width="5"/>
    </g>
    <g id="Group_2207" data-name="Group 2207" transform="translate(1170.379 -2570.608)">
      <path id="Path_1520" data-name="Path 1520" d="M11.432,22.864A11.432,11.432,0,1,0,0,11.432,11.432,11.432,0,0,0,11.432,22.864Z" fill="none" stroke="#577e9a" stroke-width="5"/>
    </g>
    <g id="Group_2208" data-name="Group 2208" transform="translate(1212.589 -2823.866) rotate(180)">
      <path id="Path_1521" data-name="Path 1521" d="M11.432,22.864A11.432,11.432,0,1,0,0,11.432,11.432,11.432,0,0,0,11.432,22.864Z" fill="none" stroke="#577e9a" stroke-width="5"/>
    </g>
    <g id="Group_2209" data-name="Group 2209" transform="translate(1390.221 -2684.926) rotate(180)">
      <path id="Path_1522" data-name="Path 1522" d="M11.432,22.864A11.432,11.432,0,1,0,0,11.432,11.432,11.432,0,0,0,11.432,22.864Z" fill="none" stroke="#577e9a" stroke-width="5"/>
    </g>
    <g id="Group_2210" data-name="Group 2210" transform="translate(1807.042 -2598.748)">
      <path id="Path_1523" data-name="Path 1523" d="M11.432,22.864A11.432,11.432,0,1,0,0,11.432,11.432,11.432,0,0,0,11.432,22.864Z" fill="none" stroke="#33347a" stroke-width="5"/>
    </g>
    <g id="Group_2211" data-name="Group 2211" transform="translate(1508.057 -2378.906)">
      <path id="Path_1524" data-name="Path 1524" d="M11.432,22.864A11.432,11.432,0,1,0,0,11.432,11.432,11.432,0,0,0,11.432,22.864Z" fill="none" stroke="#33347a" stroke-width="5"/>
    </g>
    <g id="Group_2212" data-name="Group 2212" transform="translate(1787.696 -2336.696)">
      <path id="Path_1525" data-name="Path 1525" d="M11.432,22.864A11.432,11.432,0,1,0,0,11.432,11.432,11.432,0,0,0,11.432,22.864Z" fill="none" stroke="#33347a" stroke-width="5"/>
    </g>
    <g id="Group_2213" data-name="Group 2213" transform="translate(1615.34 -2333.178)">
      <path id="Path_1526" data-name="Path 1526" d="M11.432,22.864A11.432,11.432,0,1,0,0,11.432,11.432,11.432,0,0,0,11.432,22.864Z" fill="none" stroke="#33347a" stroke-width="5"/>
    </g>
    <g id="Group_2214" data-name="Group 2214" transform="translate(1525.644 -2660.303)">
      <path id="Path_1527" data-name="Path 1527" d="M11.432,22.864A11.432,11.432,0,1,0,0,11.432,11.432,11.432,0,0,0,11.432,22.864Z" fill="none" stroke="#33347a" stroke-width="5"/>
    </g>
    <g id="Group_2215" data-name="Group 2215" transform="translate(1574.889 -3027.88)">
      <path id="Path_1528" data-name="Path 1528" d="M11.432,22.864A11.432,11.432,0,1,0,0,11.432,11.432,11.432,0,0,0,11.432,22.864Z" fill="none" stroke="#33347a" stroke-width="5"/>
    </g>
    <g id="Group_2216" data-name="Group 2216" transform="translate(1267.11 -2778.139)">
      <path id="Path_1529" data-name="Path 1529" d="M11.432,22.864A11.432,11.432,0,1,0,0,11.432,11.432,11.432,0,0,0,11.432,22.864Z" fill="none" stroke="#33347a" stroke-width="5"/>
    </g>
    <g id="Group_2217" data-name="Group 2217" transform="translate(1279.421 -3026.121) rotate(180)">
      <path id="Path_1530" data-name="Path 1530" d="M11.432,22.864A11.432,11.432,0,1,0,0,11.432,11.432,11.432,0,0,0,11.432,22.864Z" fill="none" stroke="#33347a" stroke-width="5"/>
    </g>
    <g id="Group_2218" data-name="Group 2218" transform="translate(1226.659 -2440.461)">
      <path id="Path_1531" data-name="Path 1531" d="M11.432,22.864A11.432,11.432,0,1,0,0,11.432,11.432,11.432,0,0,0,11.432,22.864Z" fill="none" stroke="#33347a" stroke-width="5"/>
    </g>
    <g id="Group_2219" data-name="Group 2219" transform="translate(1706.794 -2841.453)">
      <path id="Path_1532" data-name="Path 1532" d="M30.778,61.556A30.778,30.778,0,1,0,0,30.778,30.778,30.778,0,0,0,30.778,61.556Z" fill="none" stroke="#577e9a" stroke-width="5"/>
    </g>
    <g id="Group_2220" data-name="Group 2220" transform="translate(1574.889 -2945.219)">
      <path id="Path_1533" data-name="Path 1533" d="M30.778,61.556A30.778,30.778,0,1,0,0,30.778,30.778,30.778,0,0,0,30.778,61.556Z" fill="none" stroke="#577e9a" stroke-width="5"/>
    </g>
    <g id="Group_2221" data-name="Group 2221" transform="translate(1840.458 -2535.433)">
      <path id="Path_1534" data-name="Path 1534" d="M46.607,93.213A46.607,46.607,0,1,0,0,46.607,46.607,46.607,0,0,0,46.607,93.213Z" fill="none" stroke="#577e9a" stroke-width="5"/>
    </g>
    <g id="Group_2222" data-name="Group 2222" transform="translate(1872.115 -2903.009)">
      <path id="Path_1535" data-name="Path 1535" d="M30.778,61.556A30.778,30.778,0,1,0,0,30.778,30.778,30.778,0,0,0,30.778,61.556Z" fill="none" stroke="#577e9a" stroke-width="5"/>
    </g>
    <g id="Group_2223" data-name="Group 2223" transform="translate(1407.809 -2621.611)">
      <path id="Path_1536" data-name="Path 1536" d="M30.778,61.556A30.778,30.778,0,1,0,0,30.778,30.778,30.778,0,0,0,30.778,61.556Z" fill="none" stroke="#577e9a" stroke-width="5"/>
    </g>
    <g id="Group_2224" data-name="Group 2224" transform="translate(1457.053 -2989.187)">
      <path id="Path_1537" data-name="Path 1537" d="M30.778,61.556A30.778,30.778,0,1,0,0,30.778,30.778,30.778,0,0,0,30.778,61.556Z" fill="none" stroke="#577e9a" stroke-width="5"/>
    </g>
    <g id="Group_2225" data-name="Group 2225" transform="translate(1305.802 -3082.4)">
      <path id="Path_1538" data-name="Path 1538" d="M30.778,61.556A30.778,30.778,0,1,0,0,30.778,30.778,30.778,0,0,0,30.778,61.556Z" fill="none" stroke="#577e9a" stroke-width="5"/>
    </g>
    <g id="Group_2226" data-name="Group 2226" transform="translate(1149.274 -2739.447)">
      <path id="Path_1539" data-name="Path 1539" d="M30.778,61.556A30.778,30.778,0,1,0,0,30.778,30.778,30.778,0,0,0,30.778,61.556Z" fill="none" stroke="#577e9a" stroke-width="5"/>
    </g>
    <g id="Group_2227" data-name="Group 2227" transform="translate(1200.278 -2948.736) rotate(180)">
      <path id="Path_1540" data-name="Path 1540" d="M30.778,61.556A30.778,30.778,0,1,0,0,30.778,30.778,30.778,0,0,0,30.778,61.556Z" fill="none" stroke="#577e9a" stroke-width="5"/>
    </g>
    <g id="Group_2228" data-name="Group 2228" transform="translate(1763.074 -2716.583)">
      <path id="Path_1541" data-name="Path 1541" d="M51,102.007A51,51,0,1,0,0,51,51,51,0,0,0,51,102.007Z" fill="none" stroke="#8d618a" stroke-width="5"/>
    </g>
    <g id="Group_2229" data-name="Group 2229" transform="translate(1057.82 -2431.667)">
      <path id="Path_1542" data-name="Path 1542" d="M51,102.007A51,51,0,1,0,0,51,51,51,0,0,0,51,102.007Z" fill="none" stroke="#8d618a" stroke-width="5"/>
    </g>
    <g id="Group_2230" data-name="Group 2230" transform="translate(1464.088 -2496.741)">
      <path id="Path_1543" data-name="Path 1543" d="M51,102.007A51,51,0,1,0,0,51,51,51,0,0,0,51,102.007Z" fill="none" stroke="#8d618a" stroke-width="5"/>
    </g>
    <g id="Group_2231" data-name="Group 2231" transform="translate(1513.333 -2864.317)">
      <path id="Path_1544" data-name="Path 1544" d="M51,102.007A51,51,0,1,0,0,51,51,51,0,0,0,51,102.007Z" fill="none" stroke="#8d618a" stroke-width="5"/>
    </g>
    <g id="Group_2232" data-name="Group 2232" transform="translate(1205.554 -2614.576)">
      <path id="Path_1545" data-name="Path 1545" d="M51,102.007A51,51,0,1,0,0,51,51,51,0,0,0,51,102.007Z" fill="none" stroke="#8d618a" stroke-width="5"/>
    </g>
    <g id="Group_2233" data-name="Group 2233" transform="translate(1372.634 -2899.492) rotate(180)">
      <path id="Path_1546" data-name="Path 1546" d="M51,102.007A51,51,0,1,0,0,51,51,51,0,0,0,51,102.007Z" fill="none" stroke="#8d618a" stroke-width="5"/>
    </g>
    <g id="Group_2234" data-name="Group 2234" transform="translate(1743.728 -2454.531)">
      <path id="Path_1547" data-name="Path 1547" d="M51,102.007A51,51,0,1,0,0,51,51,51,0,0,0,51,102.007Z" fill="none" stroke="#8d618a" stroke-width="5"/>
    </g>
    <g id="Group_2235" data-name="Group 2235" transform="translate(1595.994 -2514.328)">
      <path id="Path_1548" data-name="Path 1548" d="M51,102.007A51,51,0,1,0,0,51,51,51,0,0,0,51,102.007Z" fill="none" stroke="#8d618a" stroke-width="5"/>
    </g>
    <g id="Group_2236" data-name="Group 2236" transform="translate(1615.34 -2626.887)">
      <path id="Path_1549" data-name="Path 1549" d="M22.864,45.727A22.864,22.864,0,1,0,0,22.864,22.864,22.864,0,0,0,22.864,45.727Z" fill="none" stroke="#beaa71" stroke-width="5"/>
    </g>
    <g id="Group_2237" data-name="Group 2237" transform="translate(1854.528 -2785.174)">
      <path id="Path_1550" data-name="Path 1550" d="M22.864,45.727A22.864,22.864,0,1,0,0,22.864,22.864,22.864,0,0,0,22.864,45.727Z" fill="none" stroke="#beaa71" stroke-width="5"/>
    </g>
    <g id="Group_2238" data-name="Group 2238" transform="translate(1316.354 -2407.045)">
      <path id="Path_1551" data-name="Path 1551" d="M22.864,45.727A22.864,22.864,0,1,0,0,22.864,22.864,22.864,0,0,0,22.864,45.727Z" fill="none" stroke="#beaa71" stroke-width="5"/>
    </g>
    <g id="Group_2239" data-name="Group 2239" transform="translate(1671.619 -2700.754)">
      <path id="Path_1552" data-name="Path 1552" d="M22.864,45.727A22.864,22.864,0,1,0,0,22.864,22.864,22.864,0,0,0,22.864,45.727Z" fill="none" stroke="#beaa71" stroke-width="5"/>
    </g>
    <g id="Group_2240" data-name="Group 2240" transform="translate(1785.937 -2572.366)">
      <path id="Path_1553" data-name="Path 1553" d="M22.864,45.727A22.864,22.864,0,1,0,0,22.864,22.864,22.864,0,0,0,22.864,45.727Z" fill="none" stroke="#beaa71" stroke-width="5"/>
    </g>
    <g id="Group_2241" data-name="Group 2241" transform="translate(1372.634 -2480.912)">
      <path id="Path_1554" data-name="Path 1554" d="M22.864,45.727A22.864,22.864,0,1,0,0,22.864,22.864,22.864,0,0,0,22.864,45.727Z" fill="none" stroke="#beaa71" stroke-width="5"/>
    </g>
    <g id="Group_2242" data-name="Group 2242" transform="translate(1421.879 -2848.488)">
      <path id="Path_1555" data-name="Path 1555" d="M22.864,45.727A22.864,22.864,0,1,0,0,22.864,22.864,22.864,0,0,0,22.864,45.727Z" fill="none" stroke="#beaa71" stroke-width="5"/>
    </g>
    <g id="Group_2243" data-name="Group 2243" transform="translate(1114.1 -2598.748)">
      <path id="Path_1556" data-name="Path 1556" d="M22.864,45.727A22.864,22.864,0,1,0,0,22.864,22.864,22.864,0,0,0,22.864,45.727Z" fill="none" stroke="#beaa71" stroke-width="5"/>
    </g>
    <g id="Group_2244" data-name="Group 2244" transform="translate(1149.274 -2823.866) rotate(180)">
      <path id="Path_1557" data-name="Path 1557" d="M22.864,45.727A22.864,22.864,0,1,0,0,22.864,22.864,22.864,0,0,0,22.864,45.727Z" fill="none" stroke="#beaa71" stroke-width="5"/>
    </g>
    <g id="Group_2245" data-name="Group 2245" transform="translate(1548.508 -2632.164)">
      <path id="Path_1558" data-name="Path 1558" d="M25.5,51A25.5,25.5,0,1,0,0,25.5,25.5,25.5,0,0,0,25.5,51Z" fill="none" stroke="#d1cdc0" stroke-width="5"/>
    </g>
    <g id="Group_2246" data-name="Group 2246" transform="translate(1358.564 -2772.863)">
      <path id="Path_1559" data-name="Path 1559" d="M25.5,51A25.5,25.5,0,1,0,0,25.5,25.5,25.5,0,0,0,25.5,51Z" fill="none" stroke="#d1cdc0" stroke-width="5"/>
    </g>
    <g id="Group_2247" data-name="Group 2247" transform="translate(1249.522 -2412.322)">
      <path id="Path_1560" data-name="Path 1560" d="M25.5,51A25.5,25.5,0,1,0,0,25.5,25.5,25.5,0,0,0,25.5,51Z" fill="none" stroke="#d1cdc0" stroke-width="5"/>
    </g>
    <g id="Group_2248" data-name="Group 2248" transform="translate(1379.669 -3129.886)">
      <path id="Path_1561" data-name="Path 1561" d="M25.5,51A25.5,25.5,0,1,0,0,25.5,25.5,25.5,0,0,0,25.5,51Z" fill="none" stroke="#d1cdc0" stroke-width="5"/>
    </g>
    <g id="Group_2249" data-name="Group 2249" transform="translate(1214.348 -3117.575)">
      <path id="Path_1562" data-name="Path 1562" d="M25.5,51A25.5,25.5,0,1,0,0,25.5,25.5,25.5,0,0,0,25.5,51Z" fill="none" stroke="#d1cdc0" stroke-width="5"/>
    </g>
    <g id="Group_2250" data-name="Group 2250" transform="translate(1712.07 -2751.758)">
      <path id="Path_1563" data-name="Path 1563" d="M25.5,51A25.5,25.5,0,1,0,0,25.5,25.5,25.5,0,0,0,25.5,51Z" fill="none" stroke="#d1cdc0" stroke-width="5"/>
    </g>
    <g id="Group_2251" data-name="Group 2251" transform="translate(1413.085 -2531.916)">
      <path id="Path_1564" data-name="Path 1564" d="M25.5,51A25.5,25.5,0,1,0,0,25.5,25.5,25.5,0,0,0,25.5,51Z" fill="none" stroke="#d1cdc0" stroke-width="5"/>
    </g>
    <g id="Group_2252" data-name="Group 2252" transform="translate(1152.792 -2347.248)">
      <path id="Path_1565" data-name="Path 1565" d="M39.572,79.143A39.572,39.572,0,1,0,0,39.572,39.572,39.572,0,0,0,39.572,79.143Z" fill="none" stroke="#d1cdc0" stroke-width="5"/>
    </g>
    <g id="Group_2253" data-name="Group 2253" transform="translate(1462.33 -2899.492)">
      <path id="Path_1566" data-name="Path 1566" d="M25.5,51A25.5,25.5,0,1,0,0,25.5,25.5,25.5,0,0,0,25.5,51Z" fill="none" stroke="#d1cdc0" stroke-width="5"/>
    </g>
    <g id="Group_2254" data-name="Group 2254" transform="translate(1154.551 -2649.751)">
      <path id="Path_1567" data-name="Path 1567" d="M25.5,51A25.5,25.5,0,1,0,0,25.5,25.5,25.5,0,0,0,25.5,51Z" fill="none" stroke="#d1cdc0" stroke-width="5"/>
    </g>
    <g id="Group_2255" data-name="Group 2255" transform="translate(1195.001 -2869.593) rotate(180)">
      <path id="Path_1568" data-name="Path 1568" d="M25.5,51A25.5,25.5,0,1,0,0,25.5,25.5,25.5,0,0,0,25.5,51Z" fill="none" stroke="#d1cdc0" stroke-width="5"/>
    </g>
    <g id="Group_2256" data-name="Group 2256" transform="translate(1675.137 -2553.021)">
      <path id="Path_1569" data-name="Path 1569" d="M25.5,51A25.5,25.5,0,1,0,0,25.5,25.5,25.5,0,0,0,25.5,51Z" fill="none" stroke="#d1cdc0" stroke-width="5"/>
    </g>
    <g id="Group_2257" data-name="Group 2257" transform="translate(1534.438 -2554.779)">
      <path id="Path_1570" data-name="Path 1570" d="M25.5,51A25.5,25.5,0,1,0,0,25.5,25.5,25.5,0,0,0,25.5,51Z" fill="none" stroke="#d1cdc0" stroke-width="5"/>
    </g>
    <g id="Group_2258" data-name="Group 2258" transform="translate(1648.756 -2954.012)">
      <path id="Path_1571" data-name="Path 1571" d="M25.5,51A25.5,25.5,0,1,0,0,25.5,25.5,25.5,0,0,0,25.5,51Z" fill="none" stroke="#d1cdc0" stroke-width="5"/>
    </g>
    <g id="Group_2259" data-name="Group 2259" transform="translate(1814.077 -3015.568)">
      <path id="Path_1572" data-name="Path 1572" d="M25.5,51A25.5,25.5,0,1,0,0,25.5,25.5,25.5,0,0,0,25.5,51Z" fill="none" stroke="#d1cdc0" stroke-width="5"/>
    </g>
    <g id="Group_2260" data-name="Group 2260" transform="translate(1858.046 -2632.164)">
      <path id="Path_1573" data-name="Path 1573" d="M25.5,51A25.5,25.5,0,1,0,0,25.5,25.5,25.5,0,0,0,25.5,51Z" fill="none" stroke="#d1cec0" stroke-width="5"/>
    </g>
    <g id="Group_2261" data-name="Group 2261" transform="translate(1546.749 -2370.112)">
      <path id="Path_1574" data-name="Path 1574" d="M25.5,51A25.5,25.5,0,1,0,0,25.5,25.5,25.5,0,0,0,25.5,51Z" fill="none" stroke="#d1cec0" stroke-width="5"/>
    </g>
    <g id="Group_2262" data-name="Group 2262" transform="translate(1838.699 -2370.112)">
      <path id="Path_1575" data-name="Path 1575" d="M25.5,51A25.5,25.5,0,1,0,0,25.5,25.5,25.5,0,0,0,25.5,51Z" fill="none" stroke="#d1cec0" stroke-width="5"/>
    </g>
    <g id="Group_2263" data-name="Group 2263" transform="translate(1666.343 -2366.594)">
      <path id="Path_1576" data-name="Path 1576" d="M25.5,51A25.5,25.5,0,1,0,0,25.5,25.5,25.5,0,0,0,25.5,51Z" fill="none" stroke="#d1cec0" stroke-width="5"/>
    </g>
    <g id="Group_2264" data-name="Group 2264" transform="translate(1497.504 -2614.576)">
      <path id="Path_1577" data-name="Path 1577" d="M16.708,33.416A16.708,16.708,0,1,0,0,16.708,16.708,16.708,0,0,0,16.708,33.416Z" fill="none" stroke="#8d618a" stroke-width="5"/>
    </g>
    <g id="Group_2265" data-name="Group 2265" transform="translate(1421.879 -2790.45)">
      <path id="Path_1578" data-name="Path 1578" d="M16.708,33.416A16.708,16.708,0,1,0,0,16.708,16.708,16.708,0,0,0,16.708,33.416Z" fill="none" stroke="#8d618a" stroke-width="5"/>
    </g>
    <g id="Group_2266" data-name="Group 2266" transform="translate(1217.865 -2811.555)">
      <path id="Path_1579" data-name="Path 1579" d="M16.708,33.416A16.708,16.708,0,1,0,0,16.708,16.708,16.708,0,0,0,16.708,33.416Z" fill="none" stroke="#8d618a" stroke-width="5"/>
    </g>
    <g id="Group_2267" data-name="Group 2267" transform="translate(1307.561 -2755.275)">
      <path id="Path_1580" data-name="Path 1580" d="M16.708,33.416A16.708,16.708,0,1,0,0,16.708,16.708,16.708,0,0,0,16.708,33.416Z" fill="none" stroke="#8d618a" stroke-width="5"/>
    </g>
    <g id="Group_2268" data-name="Group 2268" transform="translate(1546.749 -2982.152)">
      <path id="Path_1581" data-name="Path 1581" d="M16.708,33.416A16.708,16.708,0,1,0,0,16.708,16.708,16.708,0,0,0,16.708,33.416Z" fill="none" stroke="#8d618a" stroke-width="5"/>
    </g>
    <g id="Group_2269" data-name="Group 2269" transform="translate(1238.97 -2732.412)">
      <path id="Path_1582" data-name="Path 1582" d="M16.708,33.416A16.708,16.708,0,1,0,0,16.708,16.708,16.708,0,0,0,16.708,33.416Z" fill="none" stroke="#d1cdc0" stroke-width="5"/>
    </g>
    <g id="Group_2270" data-name="Group 2270" transform="translate(1261.834 -2969.841) rotate(180)">
      <path id="Path_1583" data-name="Path 1583" d="M16.708,33.416A16.708,16.708,0,1,0,0,16.708,16.708,16.708,0,0,0,16.708,33.416Z" fill="none" stroke="#8d618a" stroke-width="5"/>
    </g>
    <g id="Group_2271" data-name="Group 2271" transform="translate(1198.519 -2394.734)">
      <path id="Path_1584" data-name="Path 1584" d="M16.708,33.416A16.708,16.708,0,1,0,0,16.708,16.708,16.708,0,0,0,16.708,33.416Z" fill="none" stroke="#8d618a" stroke-width="5"/>
    </g>
    <g id="Group_2272" data-name="Group 2272" transform="translate(1643.479 -2881.904)">
      <path id="Path_1585" data-name="Path 1585" d="M28.14,56.28A28.14,28.14,0,1,0,0,28.14,28.14,28.14,0,0,0,28.14,56.28Z" fill="none" stroke="#8d618a" stroke-width="5"/>
    </g>
    <g id="Group_2273" data-name="Group 2273" transform="translate(1808.801 -2943.46)">
      <path id="Path_1586" data-name="Path 1586" d="M28.14,56.28A28.14,28.14,0,1,0,0,28.14,28.14,28.14,0,0,0,28.14,56.28Z" fill="none" stroke="#8d618a" stroke-width="5"/>
    </g>
    <g id="Group_2274" data-name="Group 2274" transform="translate(1344.494 -2662.062)">
      <path id="Path_1587" data-name="Path 1587" d="M28.14,56.28A28.14,28.14,0,1,0,0,28.14,28.14,28.14,0,0,0,28.14,56.28Z" fill="none" stroke="#8d618a" stroke-width="5"/>
    </g>
    <g id="Group_2275" data-name="Group 2275" transform="translate(1393.739 -3029.638)">
      <path id="Path_1588" data-name="Path 1588" d="M28.14,56.28A28.14,28.14,0,1,0,0,28.14,28.14,28.14,0,0,0,28.14,56.28Z" fill="none" stroke="#8d618a" stroke-width="5"/>
    </g>
    <g id="Group_2276" data-name="Group 2276" transform="translate(1544.99 -3107.023)">
      <path id="Path_1589" data-name="Path 1589" d="M28.14,56.28A28.14,28.14,0,1,0,0,28.14,28.14,28.14,0,0,0,28.14,56.28Z" fill="none" stroke="#8d618a" stroke-width="5"/>
    </g>
    <g id="Group_2277" data-name="Group 2277" transform="translate(1407.809 -2329.661)">
      <path id="Path_1590" data-name="Path 1590" d="M28.14,56.28A28.14,28.14,0,1,0,0,28.14,28.14,28.14,0,0,0,28.14,56.28Z" fill="none" stroke="#8d618a" stroke-width="5"/>
    </g>
    <g id="Group_2278" data-name="Group 2278" transform="translate(1085.96 -2779.897)">
      <path id="Path_1591" data-name="Path 1591" d="M28.14,56.28A28.14,28.14,0,1,0,0,28.14,28.14,28.14,0,0,0,28.14,56.28Z" fill="none" stroke="#8d618a" stroke-width="5"/>
    </g>
    <g id="Group_2279" data-name="Group 2279" transform="translate(1131.687 -2994.463) rotate(180)">
      <path id="Path_1592" data-name="Path 1592" d="M28.14,56.28A28.14,28.14,0,1,0,0,28.14,28.14,28.14,0,0,0,28.14,56.28Z" fill="none" stroke="#8d618a" stroke-width="5"/>
    </g>
  </g>
</svg>
