<?xml version="1.0" encoding="UTF-8" standalone="no"?>
<!-- Created with Inkscape (http://www.inkscape.org/) -->
<svg xmlns:dc="http://purl.org/dc/elements/1.1/" xmlns:cc="http://creativecommons.org/ns#" xmlns:rdf="http://www.w3.org/1999/02/22-rdf-syntax-ns#" xmlns:svg="http://www.w3.org/2000/svg" xmlns="http://www.w3.org/2000/svg" xmlns:inkscape="http://www.inkscape.org/namespaces/inkscape" version="1.1" width="892.91339" height="210.1181" id="svg2">
  <defs id="defs4">
    <inkscape:path-effect effect="spiro" id="path-effect2998"/>
    <clipPath id="clipPath3669">
      <path d="m 0,0 419.528,0 0,595.276 L 0,595.276 0,0 z" id="path3671"/>
    </clipPath>
    <clipPath id="clipPath3683">
      <path d="m 0,0 419.528,0 0,595.276 L 0,595.276 0,0 z" id="path3685"/>
    </clipPath>
    <clipPath id="clipPath3709">
      <path d="m 0,0 419.528,0 0,595.276 L 0,595.276 0,0 z" id="path3711"/>
    </clipPath>
    <clipPath id="clipPath4706">
      <path d="m 0,0 419.528,0 0,595.276 L 0,595.276 0,0 z" id="path4708"/>
    </clipPath>
    <clipPath id="clipPath4680">
      <path d="m 0,0 419.528,0 0,595.276 L 0,595.276 0,0 z" id="path4682"/>
    </clipPath>
    <clipPath id="clipPath4666">
      <path d="m 0,0 419.528,0 0,595.276 L 0,595.276 0,0 z" id="path4668"/>
    </clipPath>
    <clipPath id="clipPath4626">
      <path d="m 0,0 419.528,0 0,595.276 L 0,595.276 0,0 z" id="path4628"/>
    </clipPath>
    <clipPath id="clipPath4606">
      <path d="m 0,0 419.528,0 0,595.276 L 0,595.276 0,0 z" id="path4608"/>
    </clipPath>
  </defs>
  <metadata id="metadata7">
    <rdf:RDF>
      <cc:Work rdf:about="">
        <dc:format>image/svg+xml</dc:format>
        <dc:type rdf:resource="http://purl.org/dc/dcmitype/StillImage"/>
        <dc:title/>
      </cc:Work>
    </rdf:RDF>
  </metadata>
  <g transform="translate(140.9254,-432.80085)" id="layer1">
    <g transform="translate(358.55178,58.601584)" id="g5075">
      <g transform="matrix(1.4812064,0,0,-1.4812064,-215.37753,1289.2889)" id="g4702">
        <g id="g5193">
          <g transform="translate(0,-1.0802006e-5)" id="g4676"/>
          <g id="g5270">
            <g transform="matrix(4.5400849,0,0,4.5400849,-296.63873,-1982.3602)" id="g5337">
              <g transform="matrix(0.67512536,0,0,-0.67512536,-95.878103,870.43205)" id="g5143">
                <g transform="matrix(1.4812064,0,0,-1.4812064,366.45591,453.76587)" id="g4590">
                  <path d="m 0,0 -0.008,-0.011 c 1.782,-1.807 2.951,-4.246 3.139,-6.99 0.42,-6.057 -4.1,-11.305 -10.093,-11.729 -2.819,-0.201 -5.46,0.704 -7.515,2.345 l -0.008,-0.01 c 2.13,-2.001 5.046,-3.149 8.18,-2.926 5.994,0.419 10.514,5.672 10.096,11.725 C 3.579,-4.535 2.143,-1.849 0,0" id="path4592" style="fill:#004990;fill-opacity:1;fill-rule:nonzero;stroke:none"/>
                </g>
                <g transform="matrix(1.4812064,0,0,-1.4812064,337.89439,472.28747)" id="g4594">
                  <path d="m 0,0 c -0.35,-0.195 -0.424,-0.488 -0.247,-0.942 0.163,-0.41 0.419,-0.591 0.693,-0.476 0.22,0.087 0.258,0.278 0.168,0.77 L 0.573,-0.454 C 0.485,0.034 0.468,0.243 0.527,0.456 0.583,0.694 0.717,0.844 0.923,0.926 1.414,1.128 1.88,0.817 2.156,0.119 2.455,-0.635 2.294,-1.203 1.711,-1.448 l -0.148,0.369 c 0.408,0.174 0.512,0.56 0.29,1.108 C 1.679,0.477 1.394,0.676 1.1,0.555 0.858,0.458 0.806,0.237 0.893,-0.272 l 0.036,-0.216 0.028,-0.187 c 0.065,-0.375 0.073,-0.512 0.038,-0.673 -0.048,-0.2 -0.174,-0.346 -0.38,-0.427 -0.461,-0.187 -0.907,0.086 -1.159,0.716 -0.268,0.685 -0.122,1.192 0.396,1.424 L 0,0 z" id="path4596" style="fill:#004990;fill-opacity:1;fill-rule:nonzero;stroke:none"/>
                </g>
                <g transform="matrix(1.4812064,0,0,-1.4812064,337.43433,466.40901)" id="g4598">
                  <path d="m 0,0 1.654,1.404 0.008,-0.516 -1.399,-1.171 0.453,-0.506 0.983,0.023 0.008,-0.409 -2.802,-0.06 -0.011,0.404 1.101,0.024 0.155,0 0.142,0.002 L 0.198,-0.702 0.1,-0.604 -1.139,0.753 -1.151,1.292 0,0 z" id="path4600" style="fill:#004990;fill-opacity:1;fill-rule:nonzero;stroke:none"/>
                </g>
                <g transform="matrix(1.4812064,0,0,-1.4812064,-215.37753,1289.2889)" id="g4602">
                  <g clip-path="url(#clipPath4606)" id="g4604">
                    <g transform="translate(374.4604,559.94)" id="g4610">
                      <path d="m 0,0 1.081,-0.383 -0.13,-0.385 -1.084,0.385 -1.936,-0.592 0.161,0.467 1.205,0.341 0.147,0.039 c 0.06,0.02 0.098,0.026 0.202,0.051 -0.094,0.115 -0.115,0.139 -0.214,0.281 L -1.31,1.217 -1.155,1.665 0,0 z" id="path4612" style="fill:#004990;fill-opacity:1;fill-rule:nonzero;stroke:none"/>
                    </g>
                  </g>
                </g>
                <g transform="matrix(1.4812064,0,0,-1.4812064,342.08769,452.18884)" id="g4614">
                  <path d="m 0,0 -0.592,-0.734 1.769,-1.463 -0.424,-0.525 -1.771,1.463 -0.591,-0.73 -0.4,0.332 L -0.402,0.33 0,0 z" id="path4616" style="fill:#004990;fill-opacity:1;fill-rule:nonzero;stroke:none"/>
                </g>
                <g transform="matrix(1.4812064,0,0,-1.4812064,347.69939,448.21284)" id="g4618">
                  <path d="m 0,0 -1.416,-0.838 0.301,-0.524 1.3,0.768 0.244,-0.418 -1.301,-0.765 0.348,-0.604 1.442,0.854 0.265,-0.452 -2.027,-1.194 -1.416,2.445 1.997,1.182 L 0,0 z" id="path4620" style="fill:#004990;fill-opacity:1;fill-rule:nonzero;stroke:none"/>
                </g>
                <g transform="matrix(1.4812064,0,0,-1.4812064,-215.37753,1289.2889)" id="g4622">
                  <g clip-path="url(#clipPath4626)" id="g4624">
                    <g transform="translate(385.5764,566.7297)" id="g4630">
                      <path d="M 0,0 -0.729,-0.05 -1.094,0.563 -2.225,0.38 -2.384,-0.318 -3.083,-0.498 -2.346,2.599 -1.654,2.709 0,0 z M -1.604,1.46 C -1.758,1.716 -1.816,1.834 -1.905,2.036 -1.929,1.833 -1.954,1.683 -2.025,1.393 L -2.14,0.852 -1.325,0.984 -1.604,1.46 z" id="path4632" style="fill:#004990;fill-opacity:1;fill-rule:nonzero;stroke:none"/>
                    </g>
                    <g transform="translate(390.0865,565.8203)" id="g4634">
                      <path d="m 0,0 -0.591,0.229 0.227,0.843 c 0.021,0.097 0.058,0.232 0.108,0.407 0.049,0.178 0.089,0.313 0.116,0.418 0.04,0.115 0.073,0.229 0.112,0.354 l 0.064,0.2 C -0.128,2.165 -0.195,2.065 -0.348,1.833 -0.409,1.731 -0.467,1.647 -0.518,1.574 L -1.314,0.446 -1.827,0.584 -1.985,1.937 c -0.014,0.07 -0.019,0.165 -0.027,0.302 -0.012,0.179 -0.018,0.314 -0.025,0.406 -0.002,0.076 -0.002,0.188 0,0.345 L -2.109,2.645 C -2.19,2.274 -2.228,2.113 -2.339,1.667 l -0.234,-0.913 -0.621,0.1 0.702,2.769 0.944,-0.184 0.134,-1.313 C -1.381,1.82 -1.373,1.562 -1.387,1.198 -1.282,1.407 -1.243,1.476 -1.123,1.667 -1.04,1.797 -0.97,1.906 -0.904,2 L -0.167,3.072 0.73,2.764 0,0 z" id="path4636" style="fill:#004990;fill-opacity:1;fill-rule:nonzero;stroke:none"/>
                    </g>
                    <g transform="translate(384.723,560.3602)" id="g4638">
                      <path d="m 0,0 c -0.341,-0.299 -1.014,-0.955 -1.667,-1.585 l -0.739,-0.714 c -0.599,0.106 -1.195,0.161 -1.808,0.164 -1.367,0 -2.621,-0.383 -3.193,-0.976 -0.215,-0.225 -0.325,-0.468 -0.318,-0.725 0.011,-0.671 0.769,-1.003 1.002,-1.094 1.215,-0.455 2.231,-0.322 3.303,0.435 0.59,0.416 1.301,1.086 1.857,1.627 0.432,-0.1 0.92,-0.233 1.449,-0.386 L 0.374,-3.4 C -0.257,-4.025 -0.905,-4.685 -1.505,-5.218 L -1.551,-5.262 C -2.383,-6.003 -2.985,-6.537 -3.855,-6.735 -4.471,-6.869 -4.903,-6.74 -5.047,-6.652 L -5.081,-6.68 c 0.505,-0.42 0.982,-0.658 1.802,-0.585 0.783,0.068 1.686,0.562 2.61,1.438 l 1.245,1.235 0.874,0.876 1.766,-0.522 0.03,-0.011 -1.093,-1.073 -0.937,-0.942 c -0.961,-0.943 -1.483,-1.431 -2.046,-1.831 -0.926,-0.669 -1.724,-1.014 -2.423,-1.06 -0.363,-0.026 -0.887,0 -1.323,0.256 L -4.62,-8.92 c 0.474,-0.407 1.054,-0.899 2.055,-0.875 1.132,0.039 2.135,0.587 3.698,2.035 0.711,0.66 1.416,1.398 2.041,2.051 l 1.161,1.187 c 0.764,-0.171 1.444,-0.242 2.2,-0.229 1.099,0.026 2.04,0.555 2.049,1.165 0.014,0.45 -0.354,0.692 -0.572,0.833 -0.183,0.12 -0.673,0.398 -1.353,0.398 -0.823,0 -1.684,-0.369 -2.556,-1.096 l -0.579,-0.518 -0.215,0.058 -1.614,0.46 c 0.476,0.449 0.883,0.836 1.247,1.163 0.885,0.794 1.861,1.121 2.433,1.158 0.418,0.028 1.141,-0.007 1.439,-0.221 l 0.035,0.03 c -0.795,0.686 -1.483,0.778 -2.05,0.778 -0.559,0 -1.454,-0.177 -2.554,-1.036 -0.447,-0.35 -1.029,-0.939 -1.638,-1.56 l -0.816,0.255 -0.197,0.062 -0.858,0.264 0.49,0.468 c 0.577,0.57 1.124,1.111 1.551,1.478 C 2.325,0.701 3.299,0.873 3.976,0.88 4.72,0.884 5.311,0.728 5.732,0.42 L 5.763,0.449 C 4.896,1.244 4.267,1.5 3.188,1.507 2.238,1.515 1.107,0.981 0,0 m -6.089,-4.692 c -0.5,0.033 -0.746,0.237 -0.746,0.628 0,0.052 0.034,1.296 2.848,1.435 0.321,0.019 0.678,0.031 1.224,-0.033 L -3.08,-2.941 -3.257,-3.102 c -0.678,-0.623 -1.815,-1.662 -2.832,-1.59 m 11.388,1.003 c 0.809,0.553 1.483,0.848 1.902,0.833 0.246,-0.007 0.545,-0.085 0.545,-0.392 0,-0.319 -0.301,-0.585 -0.887,-0.798 -0.512,-0.187 -1.305,-0.232 -2.164,-0.135 0.237,0.215 0.437,0.381 0.604,0.492" id="path4640" style="fill:#004990;fill-opacity:1;fill-rule:nonzero;stroke:none"/>
                    </g>
                    <g transform="translate(391.2361,568.0837)" id="g4642">
                      <path d="M 0,0 C 0.104,0.239 0.371,0.348 0.607,0.246 0.843,0.142 0.95,-0.129 0.851,-0.366 0.751,-0.601 0.482,-0.711 0.245,-0.606 0.008,-0.504 -0.1,-0.235 0,0 M 0.768,-0.372 C 0.873,-0.181 0.801,0.062 0.614,0.161 0.426,0.266 0.186,0.202 0.083,0.01 -0.021,-0.182 0.053,-0.422 0.239,-0.526 0.423,-0.629 0.664,-0.565 0.768,-0.372 M 0.498,-0.508 0.423,-0.467 0.403,-0.19 0.329,-0.146 0.216,-0.352 0.154,-0.319 0.398,0.13 0.591,0.02 C 0.669,-0.024 0.738,-0.087 0.684,-0.182 0.635,-0.271 0.556,-0.27 0.478,-0.23 l 0.02,-0.278 z M 0.439,-0.127 C 0.491,-0.155 0.582,-0.219 0.622,-0.15 0.645,-0.103 0.591,-0.063 0.544,-0.033 L 0.426,0.03 0.365,-0.085 0.439,-0.127 z" id="path4644" style="fill:#004990;fill-opacity:1;fill-rule:nonzero;stroke:none"/>
                    </g>
                  </g>
                </g>
              </g>
              <g transform="translate(67.112801,556.57658)" id="g4646">
                <path d="M 0,0 1.087,-1.151 2.181,0 1.087,1.144 0,0 z" id="path4648" style="fill:#221f72;fill-opacity:1;fill-rule:nonzero;stroke:none"/>
              </g>
              <g transform="translate(62.502005,571.02188)" id="g4650">
                <path d="M 0,0 -1.09,1.15 -2.187,0 -1.09,-1.145 0,0 z" id="path4652" style="fill:#221f72;fill-opacity:1;fill-rule:nonzero;stroke:none"/>
              </g>
              <g transform="translate(64.246104,556.57658)" id="g4654">
                <path d="M 0,0 1.105,-1.151 2.197,0 1.105,1.144 0,0 z" id="path4656" style="fill:#221f72;fill-opacity:1;fill-rule:nonzero;stroke:none"/>
              </g>
              <g transform="translate(65.3717,571.02188)" id="g4658">
                <path d="M 0,0 -1.106,1.15 -2.199,0 -1.106,-1.145 0,0 z" id="path4660" style="fill:#221f72;fill-opacity:1;fill-rule:nonzero;stroke:none"/>
              </g>
              <g transform="translate(0,-1.0802006e-5)" id="g4662">
                <g clip-path="url(#clipPath4666)" id="g4664">
                  <g transform="translate(118.1639,569.9086)" id="g4670">
                    <path d="m 0,0 0,-8.096 c 0,-0.462 -0.044,-0.851 -0.206,-1.125 -0.197,-0.334 -0.545,-0.612 -1.211,-0.612 -0.665,0 -1.016,0.278 -1.216,0.612 -0.164,0.274 -0.212,0.663 -0.212,1.125 l 0,5.842 -1.884,0 0,-5.817 -2.36,0 0,5.809 -1.871,0 0,-5.809 -2.356,0 0,5.817 -1.873,0 0,-5.817 -7.232,0 c -2.087,0.146 -2.575,1.27 -2.575,2.316 0,1.468 1.29,2.034 2.7,2.034 l 3.071,0 0,1.467 -2.727,0 c -2.216,0 -4.072,-0.919 -4.072,-3.247 0,-1.514 0.674,-2.201 1.261,-2.57 l -4.746,0 0,7.212 c -4.102,-0.514 -7.358,-3.609 -7.358,-8.689 l 5.496,0 0,-1.787 c 0,-0.689 0.076,-2.007 -0.917,-2.195 l 0,-0.79 c 0.693,0.075 1.814,0.544 2.309,1.392 0.387,0.659 0.47,1.26 0.47,2.643 l 0,0.737 23.017,0 c 0.072,-0.182 0.169,-0.369 0.297,-0.558 0.575,-0.803 1.591,-1.161 2.778,-1.161 1.174,0 2.182,0.358 2.755,1.161 0.477,0.68 0.53,1.353 0.53,2.171 L 1.868,0 0,0 z m -29.371,-8.071 -3.849,0 0,0.275 c 0,3.315 2.552,5.335 3.849,5.69 l 0,-5.965 z" id="path4672" style="fill:#221f72;fill-opacity:1;fill-rule:nonzero;stroke:none"/>
                  </g>
                </g>
              </g>
              <path d="m -33.698673,459.27864 2.75505,0 0,-14.14108 -2.75505,0 0,14.14108 z" transform="matrix(0.67512536,0,0,-0.67512536,145.40683,870.43163)" id="path4674" style="fill:#221f72;fill-opacity:1;fill-rule:nonzero;stroke:none"/>
              <g transform="translate(0,-1.0802006e-5)" clip-path="url(#clipPath4680)" id="g4678">
                <g transform="translate(77.3284,567.69)" id="g4684">
                  <path d="m 0,0 -2.688,0 0,-1.481 2.253,0 c 1.74,0 3.524,-0.086 3.524,-2.123 0,-1.81 -1.317,-2.219 -3.667,-2.219 l -4.518,0 0,-1.477 4.854,0 c 2.926,0 4.361,0.905 4.361,3.688 C 4.119,-0.811 2.417,0 0,0" id="path4686" style="fill:#221f72;fill-opacity:1;fill-rule:nonzero;stroke:none"/>
                </g>
                <g transform="translate(68.2001,561.8371)" id="g4688">
                  <path d="m 0,0 c 0,-0.472 -0.052,-0.853 -0.214,-1.137 -0.198,-0.333 -0.539,-0.604 -1.208,-0.604 -0.657,0 -1.011,0.271 -1.211,0.604 -0.165,0.284 -0.216,0.665 -0.216,1.137 l 0,7.219 c -4.463,-0.426 -7.352,-3.985 -7.352,-8.696 l 5.701,0 c 0.08,-0.182 0.177,-0.356 0.301,-0.535 0.568,-0.801 1.583,-1.161 2.764,-1.161 1.19,0 2.188,0.36 2.755,1.161 0.487,0.673 0.548,1.343 0.548,2.169 l 0,6.3 L 0,6.457 0,0 z m -4.727,0 -3.822,0 0,0.249 c 0,3.295 2.518,5.372 3.822,5.728 l 0,-5.977 z" id="path4690" style="fill:#221f72;fill-opacity:1;fill-rule:nonzero;stroke:none"/>
                </g>
                <g transform="translate(86.1093,542.1237)" id="g4692">
                  <path d="M 0,0 C -1.846,0 -3.233,0.39 -4.085,1.216 -4.84,1.924 -5.189,2.731 -5.189,4.343 l 0,6.731 2,0 0,-7.016 c 0,-1.033 0.158,-1.623 0.648,-2.153 C -2.014,1.331 -1.104,1.02 0,1.02 c 1.098,0 2.001,0.311 2.53,0.885 0.489,0.53 0.641,1.12 0.641,2.153 l 0,7.016 2.014,0 0,-6.731 C 5.185,2.731 4.828,1.924 4.079,1.216 3.224,0.39 1.828,0 0,0" id="path4694" style="fill:#221f72;fill-opacity:1;fill-rule:nonzero;stroke:none"/>
                </g>
                <g transform="translate(98.7911,553.4221)" id="g4696">
                  <path d="m 0,0 c -0.986,-0.025 -3.412,-0.132 -5.183,-0.648 l 0.166,-0.804 c 0.479,0.135 0.927,0.232 1.446,0.318 l 0,-9.934 c 2.832,-0.055 4.049,-0.045 5.534,0.127 2.603,0.318 5.064,2.293 5.064,5.329 C 7.027,-1.338 3.241,0.064 0,0 m 0.388,-10.127 c -0.4,0 -1.272,0.044 -1.644,0.349 -0.304,0.266 -0.312,0.698 -0.312,1.346 l 0,7.521 c 3.08,0.276 6.489,-0.642 6.489,-4.732 0,-3.276 -2.11,-4.484 -4.533,-4.484" id="path4698" style="fill:#221f72;fill-opacity:1;fill-rule:nonzero;stroke:none"/>
                </g>
              </g>
              <path d="m -54.542213,485.94924 2.98167,0 0,-16.06073 -2.98167,0 0,16.06073 z" transform="matrix(0.67512536,0,0,-0.67512536,145.40683,870.43163)" id="path4700" style="fill:#221f72;fill-opacity:1;fill-rule:nonzero;stroke:none"/>
              <g clip-path="url(#clipPath4706)" id="g4704">
                <g transform="translate(79.6098,542.3537)" id="g4710">
                  <path d="M 0,0 -2.279,0 C -3.083,1.646 -5.181,4.03 -8.662,3.799 L -10.495,0 l -1.421,0 5.612,11.021 0.714,0 L 0,0 z m -8.225,4.714 c 1.024,0 2.938,-0.14 4.3,-1.234 L -6.372,8.542 -8.225,4.714 z" id="path4712" style="fill:#221f72;fill-opacity:1;fill-rule:nonzero;stroke:none"/>
                </g>
                <g transform="translate(124.5655,542.353)" id="g4714">
                  <path d="M 0,0 -2.279,0 C -3.084,1.645 -5.181,4.028 -8.663,3.798 L -10.495,0 l -1.42,0 5.608,11.021 0.719,0 L 0,0 z m -8.225,4.715 c 1.026,0 2.939,-0.141 4.298,-1.237 L -6.372,8.54 -8.225,4.715 z" id="path4716" style="fill:#221f72;fill-opacity:1;fill-rule:nonzero;stroke:none"/>
                </g>
                <g transform="translate(66.1096,552.8288)" id="g4718">
                  <path d="m 0,0 c -0.576,0.306 -2.015,0.756 -3.5,0.73 -2.625,-0.067 -4.374,-1.147 -4.393,-3.1 -0.011,-0.387 0.073,-0.877 0.307,-1.298 1.269,-2.196 6.529,-1.835 6.529,-4.188 0,-0.672 -0.636,-1.777 -2.443,-1.777 -1.965,0 -3.461,0.915 -4.179,1.483 l -0.517,-1.589 c 0.61,-0.318 2.25,-0.921 4.605,-0.921 1.057,0 2.257,0.288 3.135,0.977 0.851,0.675 1.234,1.506 1.234,2.533 0,3.892 -6.724,2.914 -6.724,5.359 0,0.404 0.222,0.694 0.3,0.794 0.364,0.477 1.162,0.765 2.172,0.765 0.94,0 1.929,-0.319 2.912,-1.108 L 0,0 z" id="path4720" style="fill:#221f72;fill-opacity:1;fill-rule:nonzero;stroke:none"/>
                </g>
                <g transform="translate(50.6457,550.2384)" id="g4722">
                  <path d="m 0,0 -0.038,-0.064 c -2.435,-4.275 -6.997,-7.153 -12.234,-7.153 -7.789,0 -14.103,6.372 -14.103,14.234 0,2.577 0.68,4.995 1.869,7.08 l 0.032,0.056 -0.016,0.053 -0.052,-0.019 -0.036,-0.05 c -0.21,-0.307 -0.407,-0.63 -0.595,-0.956 -3.872,-6.822 -1.485,-15.548 5.333,-19.493 6.815,-3.946 15.483,-1.614 19.352,5.206 0.191,0.327 0.364,0.664 0.522,1.003 L 0.064,-0.036 0.048,0.02 0,0 z" id="path4724" style="fill:#a39161;fill-opacity:1;fill-rule:nonzero;stroke:none"/>
                </g>
                <g transform="translate(34.9207,568.2581)" id="g4726">
                  <path d="m 0,0 c -2.005,-0.431 -5.374,-2.513 -6.09,-5.969 2.162,2.577 4.413,3.931 6.136,4.246 -1.763,-1.331 -3.421,-4.438 -2.906,-6.616 0.933,2.315 2.567,4.579 4.065,5.404 -0.848,-1.412 -1.126,-4.825 -0.314,-6.331 0.19,1.954 0.802,4.493 1.766,5.748 l 0.286,-2.451 -0.329,0 0.346,-2.494 -0.274,0 0.287,-2.494 -0.236,0 0.363,-2.493 -1.168,-0.603 0,-0.086 3.044,0 0,0.086 -1.168,0.603 -0.355,-0.277 0.353,0.277 0.358,2.493 -0.234,0 0.287,2.494 -0.275,0 0.348,2.494 -0.33,0 0.286,2.451 c 0.965,-1.255 1.575,-3.794 1.766,-5.748 0.814,1.506 0.534,4.919 -0.313,6.331 1.498,-0.825 3.13,-3.089 4.067,-5.404 0.513,2.178 -1.143,5.285 -2.907,6.616 1.723,-0.315 3.972,-1.669 6.132,-4.246 C 12.279,-2.513 8.91,-0.431 6.903,0 9.112,0.223 11.265,-0.493 13.217,-1.45 11.096,1.019 7.898,1.916 5.783,1.672 6.14,2.053 6.487,2.256 7.026,2.417 6.132,2.839 4.742,2.618 4.201,2.005 c 0,0 -0.1,1.145 -0.748,1.596 C 2.801,3.15 2.706,2.005 2.706,2.005 2.161,2.618 0.773,2.839 -0.119,2.417 0.419,2.256 0.762,2.053 1.123,1.672 -0.994,1.916 -4.194,1.019 -6.313,-1.45 -4.358,-0.493 -2.207,0.223 0,0" id="path4728" style="fill:#a39161;fill-opacity:1;fill-rule:nonzero;stroke:none"/>
                </g>
                <g transform="translate(38.9766,552.3417)" id="g4730">
                  <path d="m 0,0 c -0.167,-0.111 -0.374,-0.252 -0.604,-0.411 -0.23,0.159 -0.437,0.3 -0.603,0.411 -0.897,0.608 -8.477,5.728 -11.753,2.106 3.023,1.211 7.504,-1.076 11.193,-3.321 -0.923,-0.637 -1.975,-1.369 -2.868,-1.98 -1.416,1.386 -1.943,1.164 -2.07,1.11 -0.139,-0.059 -0.237,-0.188 -0.243,-0.348 -0.002,-0.209 0.157,-0.385 0.359,-0.391 0.204,-0.004 0.376,0.164 0.379,0.373 l -0.009,0.085 c 0.393,-0.25 0.757,-0.586 1.674,-1.54 0.932,-0.974 1.293,-1.242 1.567,-1.405 0.189,-0.111 0.381,-0.139 0.499,-0.129 0.192,0.01 0.384,0.15 0.393,0.37 0.012,0.217 -0.149,0.396 -0.357,0.399 -0.204,0.004 -0.378,-0.164 -0.378,-0.38 l 0,-0.037 c -0.253,0.186 -0.524,0.52 -1.064,1.11 0.888,0.512 2.018,1.25 3.281,2.046 1.263,-0.796 2.393,-1.534 3.28,-2.046 -0.538,-0.59 -0.809,-0.924 -1.065,-1.11 l 0,0.037 c 0.001,0.216 -0.173,0.384 -0.379,0.38 -0.209,-0.003 -0.368,-0.182 -0.355,-0.399 0.01,-0.22 0.199,-0.36 0.393,-0.37 0.117,-0.01 0.308,0.018 0.5,0.129 0.274,0.163 0.636,0.431 1.569,1.405 0.913,0.954 1.282,1.29 1.671,1.54 L 5.003,-2.451 c 0.005,-0.209 0.176,-0.377 0.376,-0.373 0.202,0.006 0.364,0.182 0.362,0.391 -0.008,0.16 -0.105,0.289 -0.243,0.348 C 5.37,-2.031 4.843,-1.809 3.427,-3.193 2.535,-2.584 1.479,-1.852 0.558,-1.215 4.249,1.03 8.73,3.317 11.751,2.106 8.474,5.728 0.895,0.608 0,0" id="path4732" style="fill:#a39161;fill-opacity:1;fill-rule:nonzero;stroke:none"/>
                </g>
                <g transform="translate(30.5174,547.5707)" id="g4734">
                  <path d="M 0,0 C -0.117,0.052 -0.237,0.119 -0.3,0.128 -0.341,0.133 -0.379,0.124 -0.406,0.095 -0.431,0.063 -0.439,0 -0.413,-0.052 -0.397,-0.089 -0.353,-0.16 -0.235,-0.264 0.26,-0.698 1.257,-1.087 3.885,0.397 3.805,0.477 3.723,0.564 3.636,0.653 3.46,0.837 3.305,0.997 3.168,1.136 1.78,0.251 0.68,-0.28 0,0" id="path4736" style="fill:#a39161;fill-opacity:1;fill-rule:nonzero;stroke:none"/>
                </g>
                <g transform="translate(46.2279,547.5707)" id="g4738">
                  <path d="M 0,0 C -0.681,-0.28 -1.781,0.251 -3.169,1.136 -3.307,0.997 -3.458,0.837 -3.638,0.653 -3.723,0.564 -3.806,0.477 -3.884,0.397 c 2.623,-1.484 3.623,-1.095 4.118,-0.661 0.12,0.104 0.163,0.175 0.179,0.212 C 0.442,0 0.433,0.063 0.405,0.095 0.38,0.124 0.343,0.133 0.301,0.128 0.239,0.119 0.118,0.052 0,0" id="path4740" style="fill:#a39161;fill-opacity:1;fill-rule:nonzero;stroke:none"/>
                </g>
              </g>
            </g>
          </g>
        </g>
      </g>
    </g>
  </g>
</svg>