<svg id="star" xmlns="http://www.w3.org/2000/svg" width="132.289" height="132.256" viewBox="0 0 132.289 132.256">
  <g id="Group_1799" data-name="Group 1799" transform="translate(0 0)">
    <path id="Path_983" data-name="Path 983" d="M128.669,64.629A12,12,0,0,0,122,44.179L90.587,40.834a1.019,1.019,0,0,1-.514-.5L76.771,7.1a11.546,11.546,0,0,0-21.084-.386l-13.643,34c.031-.1-.243.1-.565.146L10.485,44.152a12.015,12.015,0,0,0-6.86,20.489L26.416,87.136a1,1,0,0,1,.3.9l-5.185,30.243A12,12,0,0,0,38.939,130.92l27.167-14.281c.055-.009,27.236,14.282,27.236,14.282a12,12,0,0,0,17.413-12.641l-5.193-30.256a.975.975,0,0,1,.284-.864ZM94.7,89.881l5.194,30.258a.975.975,0,0,1-1.418,1.023L71.31,106.881a11.961,11.961,0,0,0-4.793-1.315h-.745a11.9,11.9,0,0,0-4.8,1.318L33.808,121.163A.972.972,0,0,1,32.4,120.14l5.187-30.251a12.019,12.019,0,0,0-3.441-10.615l-22.8-22.5a.977.977,0,0,1,.513-1.685l31-3.292A12.091,12.091,0,0,0,52.1,45.208l13.646-34c-.009.056.247-.1.657-.122-.116.019.145.18.312.518L80.009,44.816a12.137,12.137,0,0,0,9.2,6.953l31.423,3.345a.978.978,0,0,1,.327,1.636L98.125,79.291A11.987,11.987,0,0,0,94.7,89.881Z" transform="translate(0 -0.07)" fill="#d9b800"/>
  </g>
</svg>
