<svg xmlns="http://www.w3.org/2000/svg" width="76.749" height="74.701" viewBox="0 0 76.749 74.701">
  <g id="dialog" transform="translate(1 -3.069)">
    <g id="Group_2160" data-name="Group 2160" transform="translate(0 4.069)">
      <g id="Group_2159" data-name="Group 2159">
        <path id="Path_1466" data-name="Path 1466" d="M66.813,25.188H55.805V12A7.945,7.945,0,0,0,47.87,4.069H7.936A7.945,7.945,0,0,0,0,12V35.044a7.945,7.945,0,0,0,7.936,7.936H18.943V56.163A7.945,7.945,0,0,0,26.879,64.1h6.235L45.036,76.02a2.56,2.56,0,0,0,4.37-1.81V64.1H66.813a7.945,7.945,0,0,0,7.936-7.936V33.124A7.945,7.945,0,0,0,66.813,25.188ZM7.936,37.859A2.819,2.819,0,0,1,5.12,35.043V12A2.819,2.819,0,0,1,7.935,9.189H47.87A2.819,2.819,0,0,1,50.685,12V35.044a2.819,2.819,0,0,1-2.816,2.816H42.622a2.56,2.56,0,0,0-1.81.75l-8.3,8.3V40.419a2.56,2.56,0,0,0-2.56-2.56H7.936Zm61.694,18.3h0a2.819,2.819,0,0,1-2.816,2.816H46.846a2.56,2.56,0,0,0-2.56,2.56v6.491l-8.3-8.3a2.561,2.561,0,0,0-1.81-.75h-7.3a2.819,2.819,0,0,1-2.816-2.816V42.979h3.328V53.09a2.56,2.56,0,0,0,4.37,1.81L43.683,42.979h4.187a7.945,7.945,0,0,0,7.936-7.936V30.307H66.814a2.819,2.819,0,0,1,2.816,2.816Z" transform="translate(0 -4.069)" fill="#1d1860" stroke="#fff" stroke-width="2"/>
        <path id="Path_1467" data-name="Path 1467" d="M37.647,43.765h33.79a2.048,2.048,0,1,0,0-4.1H37.647a2.048,2.048,0,1,0,0,4.1Z" transform="translate(-26.639 -30.709)" fill="#1d1860" stroke="#fff" stroke-width="2"/>
        <path id="Path_1468" data-name="Path 1468" d="M37.647,77.33h33.79a2.048,2.048,0,1,0,0-4.1H37.647a2.048,2.048,0,1,0,0,4.1Z" transform="translate(-26.639 -55.827)" fill="#1d1860" stroke="#fff" stroke-width="2"/>
        <path id="Path_1469" data-name="Path 1469" d="M54.542,106.8h-16.9a2.048,2.048,0,1,0,0,4.1h16.9a2.048,2.048,0,1,0,0-4.1Z" transform="translate(-26.639 -80.943)" fill="#1d1860" stroke="#fff" stroke-width="2"/>
        <path id="Path_1470" data-name="Path 1470" d="M146.79,106.8h-8.448a2.048,2.048,0,0,0,0,4.1h8.448a2.048,2.048,0,1,0,0-4.1Z" transform="translate(-101.992 -80.943)" fill="#1d1860" stroke="#fff" stroke-width="2"/>
        <path id="Path_1471" data-name="Path 1471" d="M196.94,173.928h-16.9a2.048,2.048,0,0,0,0,4.1h16.9a2.048,2.048,0,0,0,0-4.1Z" transform="translate(-133.199 -131.178)" fill="#1d1860" stroke="#fff" stroke-width="2"/>
      </g>
    </g>
  </g>
</svg>
