<svg id="switch_on_light" xmlns="http://www.w3.org/2000/svg" xmlns:xlink="http://www.w3.org/1999/xlink" width="40" height="26" viewBox="0 0 40 26">
  <defs>
    <filter id="switch_button" x="14" y="0" width="26" height="26" filterUnits="userSpaceOnUse">
      <feOffset dy="2" input="SourceAlpha"/>
      <feGaussianBlur stdDeviation="1" result="blur"/>
      <feFlood flood-opacity="0.239"/>
      <feComposite operator="in" in2="blur"/>
      <feComposite in="SourceGraphic"/>
    </filter>
  </defs>
  <path id="switch_path" d="M37,10a6.957,6.957,0,0,1-7,7H10a6.957,6.957,0,0,1-7-7H3a6.957,6.957,0,0,1,7-7H30a6.957,6.957,0,0,1,7,7Z" transform="translate(-3 1)" fill="#5d7f9a" fill-rule="evenodd" opacity="0.5"/>
  <g transform="matrix(1, 0, 0, 1, 0, 0)" filter="url(#switch_button)">
    <path id="switch_button-2" data-name="switch_button" d="M10,0A10,10,0,1,1,0,10,10,10,0,0,1,10,0Z" transform="translate(17 1)" fill="#5d7f9a"/>
  </g>
</svg>
